<mxfile host="app.diagrams.net" modified="2021-12-27T17:15:31.796Z" agent="5.0 (Windows NT 10.0; Win64; x64) AppleWebKit/537.36 (KHTML, like Gecko) Chrome/96.0.4664.110 Safari/537.36" etag="HsFquskk4XC3Xg1MFDqf" version="16.1.0" type="github" pages="3">
  <diagram id="oEf3Yl-H5i9EgFKKw8-c" name="Page-1">
    <mxGraphModel dx="1888" dy="579" grid="1" gridSize="10" guides="1" tooltips="1" connect="1" arrows="1" fold="1" page="1" pageScale="1" pageWidth="850" pageHeight="1100" math="0" shadow="0">
      <root>
        <mxCell id="0" />
        <mxCell id="1" parent="0" />
        <mxCell id="lB4FinzbQt6ROny5KqeL-2" value="1" style="ellipse;whiteSpace=wrap;html=1;aspect=fixed;strokeWidth=2;" parent="1" vertex="1">
          <mxGeometry x="-150" y="100" width="40" height="40" as="geometry" />
        </mxCell>
        <mxCell id="lB4FinzbQt6ROny5KqeL-3" value="2" style="ellipse;whiteSpace=wrap;html=1;aspect=fixed;fillColor=#FAA005;fontColor=#000000;strokeColor=#080200;strokeWidth=2;" parent="1" vertex="1">
          <mxGeometry x="-180" y="200" width="40" height="40" as="geometry" />
        </mxCell>
        <mxCell id="lB4FinzbQt6ROny5KqeL-4" value="3" style="ellipse;whiteSpace=wrap;html=1;aspect=fixed;strokeWidth=2;" parent="1" vertex="1">
          <mxGeometry x="-170" y="270" width="40" height="40" as="geometry" />
        </mxCell>
        <mxCell id="lB4FinzbQt6ROny5KqeL-5" value="10" style="ellipse;whiteSpace=wrap;html=1;aspect=fixed;strokeWidth=2;" parent="1" vertex="1">
          <mxGeometry x="200" y="350" width="40" height="40" as="geometry" />
        </mxCell>
        <mxCell id="lB4FinzbQt6ROny5KqeL-6" value="9" style="ellipse;whiteSpace=wrap;html=1;aspect=fixed;fillColor=#FAA005;fontColor=#000000;strokeColor=#080200;strokeWidth=2;" parent="1" vertex="1">
          <mxGeometry x="240" y="160" width="40" height="40" as="geometry" />
        </mxCell>
        <mxCell id="lB4FinzbQt6ROny5KqeL-7" value="12" style="ellipse;whiteSpace=wrap;html=1;aspect=fixed;fillColor=#FAA005;fontColor=#000000;strokeColor=#080200;strokeWidth=2;" parent="1" vertex="1">
          <mxGeometry x="420" y="270" width="40" height="40" as="geometry" />
        </mxCell>
        <mxCell id="lB4FinzbQt6ROny5KqeL-8" value="8" style="ellipse;whiteSpace=wrap;html=1;aspect=fixed;fillColor=#FAA005;fontColor=#000000;strokeColor=#080200;strokeWidth=2;" parent="1" vertex="1">
          <mxGeometry x="120" y="225" width="40" height="40" as="geometry" />
        </mxCell>
        <mxCell id="lB4FinzbQt6ROny5KqeL-9" value="11" style="ellipse;whiteSpace=wrap;html=1;aspect=fixed;fillColor=#FAA005;fontColor=#000000;strokeColor=#080200;strokeWidth=2;" parent="1" vertex="1">
          <mxGeometry x="280" y="250" width="40" height="40" as="geometry" />
        </mxCell>
        <mxCell id="lB4FinzbQt6ROny5KqeL-10" value="5" style="ellipse;whiteSpace=wrap;html=1;aspect=fixed;fillColor=#FAA005;fontColor=#000000;strokeColor=#080200;strokeWidth=2;" parent="1" vertex="1">
          <mxGeometry x="-50" y="160" width="40" height="40" as="geometry" />
        </mxCell>
        <mxCell id="lB4FinzbQt6ROny5KqeL-11" value="7" style="ellipse;whiteSpace=wrap;html=1;aspect=fixed;fillColor=#FAA005;fontColor=#000000;strokeColor=#080200;strokeWidth=2;" parent="1" vertex="1">
          <mxGeometry x="-30" y="270" width="40" height="40" as="geometry" />
        </mxCell>
        <mxCell id="lB4FinzbQt6ROny5KqeL-13" value="6" style="ellipse;whiteSpace=wrap;html=1;aspect=fixed;fillColor=#FAA005;fontColor=#000000;strokeColor=#080200;strokeWidth=2;" parent="1" vertex="1">
          <mxGeometry x="120" y="100" width="40" height="40" as="geometry" />
        </mxCell>
        <mxCell id="lB4FinzbQt6ROny5KqeL-15" value="0" style="whiteSpace=wrap;html=1;aspect=fixed;strokeWidth=2;" parent="1" vertex="1">
          <mxGeometry x="-330" y="230" width="50" height="50" as="geometry" />
        </mxCell>
        <mxCell id="lB4FinzbQt6ROny5KqeL-16" value="13" style="whiteSpace=wrap;html=1;aspect=fixed;strokeWidth=2;" parent="1" vertex="1">
          <mxGeometry x="420" y="120" width="50" height="50" as="geometry" />
        </mxCell>
        <mxCell id="lB4FinzbQt6ROny5KqeL-18" value="3" style="ellipse;whiteSpace=wrap;html=1;aspect=fixed;strokeWidth=2;" parent="1" vertex="1">
          <mxGeometry x="-180" y="350" width="40" height="40" as="geometry" />
        </mxCell>
        <mxCell id="O1H2tXdAwqNPJy0CWzbl-1" value="" style="edgeStyle=orthogonalEdgeStyle;rounded=0;orthogonalLoop=1;jettySize=auto;html=1;" parent="1" source="lB4FinzbQt6ROny5KqeL-19" target="lB4FinzbQt6ROny5KqeL-15" edge="1">
          <mxGeometry relative="1" as="geometry" />
        </mxCell>
        <mxCell id="lB4FinzbQt6ROny5KqeL-19" value="0/0" style="text;html=1;strokeColor=none;fillColor=none;align=center;verticalAlign=middle;whiteSpace=wrap;rounded=0;strokeWidth=2;" parent="1" vertex="1">
          <mxGeometry x="-340" y="200" width="60" height="30" as="geometry" />
        </mxCell>
        <mxCell id="lB4FinzbQt6ROny5KqeL-22" value="a(3)/3" style="html=1;verticalAlign=bottom;endArrow=block;rounded=0;exitX=1;exitY=1;exitDx=0;exitDy=0;entryX=0;entryY=1;entryDx=0;entryDy=0;strokeWidth=2;" parent="1" source="lB4FinzbQt6ROny5KqeL-19" target="lB4FinzbQt6ROny5KqeL-2" edge="1">
          <mxGeometry width="80" relative="1" as="geometry">
            <mxPoint x="-350" y="120" as="sourcePoint" />
            <mxPoint x="-270" y="120" as="targetPoint" />
          </mxGeometry>
        </mxCell>
        <mxCell id="lB4FinzbQt6ROny5KqeL-23" value="b(4)/0" style="html=1;verticalAlign=bottom;endArrow=block;rounded=0;strokeColor=#FF0A0A;exitX=1;exitY=0.25;exitDx=0;exitDy=0;entryX=0;entryY=0.5;entryDx=0;entryDy=0;strokeWidth=2;" parent="1" source="lB4FinzbQt6ROny5KqeL-15" target="lB4FinzbQt6ROny5KqeL-3" edge="1">
          <mxGeometry width="80" relative="1" as="geometry">
            <mxPoint x="-260" y="300" as="sourcePoint" />
            <mxPoint x="-180" y="300" as="targetPoint" />
          </mxGeometry>
        </mxCell>
        <mxCell id="lB4FinzbQt6ROny5KqeL-26" value="c(2)/7" style="html=1;verticalAlign=bottom;endArrow=block;rounded=0;exitX=1;exitY=0.75;exitDx=0;exitDy=0;entryX=0;entryY=0.5;entryDx=0;entryDy=0;strokeWidth=2;" parent="1" source="lB4FinzbQt6ROny5KqeL-15" target="lB4FinzbQt6ROny5KqeL-4" edge="1">
          <mxGeometry width="80" relative="1" as="geometry">
            <mxPoint x="-270" y="240" as="sourcePoint" />
            <mxPoint x="-174.14213562373106" y="134.14213562373106" as="targetPoint" />
          </mxGeometry>
        </mxCell>
        <mxCell id="lB4FinzbQt6ROny5KqeL-27" value="d(3)/14" style="html=1;verticalAlign=bottom;endArrow=block;rounded=0;exitX=1;exitY=1;exitDx=0;exitDy=0;entryX=0;entryY=0;entryDx=0;entryDy=0;strokeWidth=2;" parent="1" source="lB4FinzbQt6ROny5KqeL-15" target="lB4FinzbQt6ROny5KqeL-18" edge="1">
          <mxGeometry width="80" relative="1" as="geometry">
            <mxPoint x="-270" y="265" as="sourcePoint" />
            <mxPoint x="-190" y="320" as="targetPoint" />
          </mxGeometry>
        </mxCell>
        <mxCell id="lB4FinzbQt6ROny5KqeL-30" value="e(3)/3" style="html=1;verticalAlign=bottom;endArrow=block;rounded=0;exitX=1;exitY=1;exitDx=0;exitDy=0;entryX=0;entryY=0;entryDx=0;entryDy=0;strokeWidth=2;" parent="1" source="lB4FinzbQt6ROny5KqeL-2" target="lB4FinzbQt6ROny5KqeL-10" edge="1">
          <mxGeometry width="80" relative="1" as="geometry">
            <mxPoint x="-260" y="275" as="sourcePoint" />
            <mxPoint x="-180" y="330" as="targetPoint" />
          </mxGeometry>
        </mxCell>
        <mxCell id="lB4FinzbQt6ROny5KqeL-33" value="f(5)/0" style="html=1;verticalAlign=bottom;endArrow=block;rounded=0;strokeColor=#FF0A0A;exitX=1;exitY=0.5;exitDx=0;exitDy=0;entryX=0;entryY=1;entryDx=0;entryDy=0;strokeWidth=2;" parent="1" source="lB4FinzbQt6ROny5KqeL-3" target="lB4FinzbQt6ROny5KqeL-10" edge="1">
          <mxGeometry width="80" relative="1" as="geometry">
            <mxPoint x="-270" y="252.5" as="sourcePoint" />
            <mxPoint x="-180" y="230" as="targetPoint" />
          </mxGeometry>
        </mxCell>
        <mxCell id="lB4FinzbQt6ROny5KqeL-34" value="3/6" style="text;html=1;strokeColor=none;fillColor=none;align=center;verticalAlign=middle;whiteSpace=wrap;rounded=0;strokeWidth=2;" parent="1" vertex="1">
          <mxGeometry x="-160" y="80" width="60" height="30" as="geometry" />
        </mxCell>
        <mxCell id="lB4FinzbQt6ROny5KqeL-35" value="4/4" style="text;html=1;strokeColor=none;fillColor=none;align=center;verticalAlign=middle;whiteSpace=wrap;rounded=0;strokeWidth=2;" parent="1" vertex="1">
          <mxGeometry x="-190" y="175" width="60" height="30" as="geometry" />
        </mxCell>
        <mxCell id="lB4FinzbQt6ROny5KqeL-36" value="2/9&lt;span style=&quot;color: rgba(0 , 0 , 0 , 0) ; font-family: monospace ; font-size: 0px&quot;&gt;%3CmxGraphModel%3E%3Croot%3E%3CmxCell%20id%3D%220%22%2F%3E%3CmxCell%20id%3D%221%22%20parent%3D%220%22%2F%3E%3CmxCell%20id%3D%222%22%20value%3D%223%2F6%22%20style%3D%22text%3Bhtml%3D1%3BstrokeColor%3Dnone%3BfillColor%3Dnone%3Balign%3Dcenter%3BverticalAlign%3Dmiddle%3BwhiteSpace%3Dwrap%3Brounded%3D0%3B%22%20vertex%3D%221%22%20parent%3D%221%22%3E%3CmxGeometry%20x%3D%22220%22%20y%3D%22560%22%20width%3D%2260%22%20height%3D%2230%22%20as%3D%22geometry%22%2F%3E%3C%2FmxCell%3E%3C%2Froot%3E%3C%2FmxGraphModel%3E&lt;/span&gt;" style="text;html=1;strokeColor=none;fillColor=none;align=center;verticalAlign=middle;whiteSpace=wrap;rounded=0;strokeWidth=2;" parent="1" vertex="1">
          <mxGeometry x="-180" y="250" width="60" height="30" as="geometry" />
        </mxCell>
        <mxCell id="lB4FinzbQt6ROny5KqeL-37" value="3/17" style="text;html=1;strokeColor=none;fillColor=none;align=center;verticalAlign=middle;whiteSpace=wrap;rounded=0;strokeWidth=2;" parent="1" vertex="1">
          <mxGeometry x="-190" y="330" width="60" height="30" as="geometry" />
        </mxCell>
        <mxCell id="lB4FinzbQt6ROny5KqeL-41" value="i(5)/0" style="html=1;verticalAlign=bottom;endArrow=block;rounded=0;strokeColor=#FF0A0A;exitX=1;exitY=0.5;exitDx=0;exitDy=0;entryX=0;entryY=0.5;entryDx=0;entryDy=0;strokeWidth=2;" parent="1" source="lB4FinzbQt6ROny5KqeL-10" target="lB4FinzbQt6ROny5KqeL-13" edge="1">
          <mxGeometry width="80" relative="1" as="geometry">
            <mxPoint x="-15.860000000000127" y="235" as="sourcePoint" />
            <mxPoint x="69.99786437626881" y="219.14213562373106" as="targetPoint" />
          </mxGeometry>
        </mxCell>
        <mxCell id="lB4FinzbQt6ROny5KqeL-42" value="g(5)/7" style="html=1;verticalAlign=bottom;endArrow=block;rounded=0;exitX=1;exitY=0.5;exitDx=0;exitDy=0;entryX=0;entryY=0.5;entryDx=0;entryDy=0;strokeWidth=2;" parent="1" source="lB4FinzbQt6ROny5KqeL-4" target="lB4FinzbQt6ROny5KqeL-11" edge="1">
          <mxGeometry width="80" relative="1" as="geometry">
            <mxPoint x="-99.99786437626892" y="250.00213562373108" as="sourcePoint" />
            <mxPoint x="-18.282135623730937" y="281.71786437626895" as="targetPoint" />
          </mxGeometry>
        </mxCell>
        <mxCell id="lB4FinzbQt6ROny5KqeL-43" value="h(14)/14" style="html=1;verticalAlign=bottom;endArrow=block;rounded=0;exitX=1;exitY=0.5;exitDx=0;exitDy=0;entryX=0;entryY=0.5;entryDx=0;entryDy=0;strokeWidth=2;" parent="1" source="lB4FinzbQt6ROny5KqeL-18" target="lB4FinzbQt6ROny5KqeL-5" edge="1">
          <mxGeometry width="80" relative="1" as="geometry">
            <mxPoint x="-110" y="380" as="sourcePoint" />
            <mxPoint y="380" as="targetPoint" />
          </mxGeometry>
        </mxCell>
        <mxCell id="lB4FinzbQt6ROny5KqeL-44" value="k(5)/0" style="html=1;verticalAlign=bottom;endArrow=block;rounded=0;strokeColor=#FF0A0A;exitX=1;exitY=0.5;exitDx=0;exitDy=0;strokeWidth=2;" parent="1" source="lB4FinzbQt6ROny5KqeL-11" target="lB4FinzbQt6ROny5KqeL-8" edge="1">
          <mxGeometry width="80" relative="1" as="geometry">
            <mxPoint x="10" y="280" as="sourcePoint" />
            <mxPoint x="185" y="185" as="targetPoint" />
          </mxGeometry>
        </mxCell>
        <mxCell id="lB4FinzbQt6ROny5KqeL-47" value="p(3)/7" style="html=1;verticalAlign=bottom;endArrow=block;rounded=0;exitX=1;exitY=0;exitDx=0;exitDy=0;entryX=0;entryY=1;entryDx=0;entryDy=0;strokeWidth=2;" parent="1" source="lB4FinzbQt6ROny5KqeL-5" target="lB4FinzbQt6ROny5KqeL-9" edge="1">
          <mxGeometry width="80" relative="1" as="geometry">
            <mxPoint x="-140" y="300" as="sourcePoint" />
            <mxPoint x="-10" y="275" as="targetPoint" />
          </mxGeometry>
        </mxCell>
        <mxCell id="lB4FinzbQt6ROny5KqeL-48" value="q(5)/8" style="html=1;verticalAlign=bottom;endArrow=block;rounded=0;exitX=1;exitY=0.5;exitDx=0;exitDy=0;entryX=0;entryY=1;entryDx=0;entryDy=0;strokeWidth=2;" parent="1" source="lB4FinzbQt6ROny5KqeL-5" target="lB4FinzbQt6ROny5KqeL-7" edge="1">
          <mxGeometry width="80" relative="1" as="geometry">
            <mxPoint x="244.14213562373106" y="365.85786437626894" as="sourcePoint" />
            <mxPoint x="285.85786437626894" y="279.14213562373106" as="targetPoint" />
          </mxGeometry>
        </mxCell>
        <mxCell id="lB4FinzbQt6ROny5KqeL-49" value="" style="endArrow=block;dashed=1;endFill=0;endSize=12;html=1;rounded=0;strokeColor=#0A0000;entryX=0;entryY=0;entryDx=0;entryDy=0;exitX=1;exitY=1;exitDx=0;exitDy=0;strokeWidth=2;" parent="1" source="lB4FinzbQt6ROny5KqeL-11" target="lB4FinzbQt6ROny5KqeL-5" edge="1">
          <mxGeometry width="160" relative="1" as="geometry">
            <mxPoint x="-9.5" y="344.5" as="sourcePoint" />
            <mxPoint x="150.5" y="344.5" as="targetPoint" />
          </mxGeometry>
        </mxCell>
        <mxCell id="lB4FinzbQt6ROny5KqeL-50" value="" style="endArrow=block;dashed=1;endFill=0;endSize=12;html=1;rounded=0;strokeColor=#FF0A0A;entryX=1;entryY=0;entryDx=0;entryDy=0;exitX=0;exitY=1;exitDx=0;exitDy=0;strokeWidth=2;" parent="1" source="lB4FinzbQt6ROny5KqeL-13" target="lB4FinzbQt6ROny5KqeL-11" edge="1">
          <mxGeometry width="160" relative="1" as="geometry">
            <mxPoint x="24.142135623731065" y="289.14213562373106" as="sourcePoint" />
            <mxPoint x="215.85786437626894" y="365.85786437626894" as="targetPoint" />
          </mxGeometry>
        </mxCell>
        <mxCell id="lB4FinzbQt6ROny5KqeL-51" value="i(3)/4" style="html=1;verticalAlign=bottom;endArrow=block;rounded=0;exitX=1;exitY=1;exitDx=0;exitDy=0;entryX=0;entryY=0.5;entryDx=0;entryDy=0;strokeWidth=2;" parent="1" source="lB4FinzbQt6ROny5KqeL-13" target="lB4FinzbQt6ROny5KqeL-6" edge="1">
          <mxGeometry width="80" relative="1" as="geometry">
            <mxPoint x="-140" y="300" as="sourcePoint" />
            <mxPoint x="-10" y="275" as="targetPoint" />
          </mxGeometry>
        </mxCell>
        <mxCell id="lB4FinzbQt6ROny5KqeL-52" value="n(3)/0" style="html=1;verticalAlign=bottom;endArrow=block;rounded=0;strokeColor=#FF0A0A;exitX=1;exitY=0;exitDx=0;exitDy=0;entryX=0;entryY=1;entryDx=0;entryDy=0;strokeWidth=2;" parent="1" source="lB4FinzbQt6ROny5KqeL-8" target="lB4FinzbQt6ROny5KqeL-6" edge="1">
          <mxGeometry width="80" relative="1" as="geometry">
            <mxPoint x="30" y="275" as="sourcePoint" />
            <mxPoint x="140.0147765073832" y="279.2313375579761" as="targetPoint" />
          </mxGeometry>
        </mxCell>
        <mxCell id="lB4FinzbQt6ROny5KqeL-53" value="o(3)/0" style="html=1;verticalAlign=bottom;endArrow=block;rounded=0;strokeColor=#FF0A0A;exitX=1;exitY=1;exitDx=0;exitDy=0;entryX=0;entryY=0;entryDx=0;entryDy=0;strokeWidth=2;" parent="1" source="lB4FinzbQt6ROny5KqeL-6" target="lB4FinzbQt6ROny5KqeL-9" edge="1">
          <mxGeometry width="80" relative="1" as="geometry">
            <mxPoint x="40" y="285" as="sourcePoint" />
            <mxPoint x="150.0147765073832" y="289.2313375579761" as="targetPoint" />
          </mxGeometry>
        </mxCell>
        <mxCell id="lB4FinzbQt6ROny5KqeL-55" value="m(4)/14" style="html=1;verticalAlign=bottom;endArrow=block;rounded=0;exitX=1;exitY=0.5;exitDx=0;exitDy=0;entryX=0;entryY=0.25;entryDx=0;entryDy=0;strokeWidth=2;" parent="1" source="lB4FinzbQt6ROny5KqeL-13" target="lB4FinzbQt6ROny5KqeL-16" edge="1">
          <mxGeometry width="80" relative="1" as="geometry">
            <mxPoint x="154.14213562373106" y="124.14213562373106" as="sourcePoint" />
            <mxPoint x="240" y="195" as="targetPoint" />
          </mxGeometry>
        </mxCell>
        <mxCell id="lB4FinzbQt6ROny5KqeL-56" value="r(3)/0" style="html=1;verticalAlign=bottom;endArrow=block;rounded=0;strokeColor=#FF0A0A;exitX=1;exitY=0.5;exitDx=0;exitDy=0;entryX=0;entryY=0.5;entryDx=0;entryDy=0;strokeWidth=2;" parent="1" source="lB4FinzbQt6ROny5KqeL-9" target="lB4FinzbQt6ROny5KqeL-7" edge="1">
          <mxGeometry width="80" relative="1" as="geometry">
            <mxPoint x="274.14213562373106" y="209.14213562373106" as="sourcePoint" />
            <mxPoint x="295.85786437626894" y="265.85786437626894" as="targetPoint" />
          </mxGeometry>
        </mxCell>
        <mxCell id="lB4FinzbQt6ROny5KqeL-57" value="s(5)/0" style="html=1;verticalAlign=bottom;endArrow=block;rounded=0;strokeColor=#FF0A0A;exitX=0.5;exitY=0;exitDx=0;exitDy=0;entryX=0.5;entryY=1;entryDx=0;entryDy=0;strokeWidth=2;" parent="1" source="lB4FinzbQt6ROny5KqeL-7" target="lB4FinzbQt6ROny5KqeL-16" edge="1">
          <mxGeometry width="80" relative="1" as="geometry">
            <mxPoint x="284.14213562373106" y="219.14213562373106" as="sourcePoint" />
            <mxPoint x="305.85786437626894" y="275.85786437626894" as="targetPoint" />
          </mxGeometry>
        </mxCell>
        <mxCell id="lB4FinzbQt6ROny5KqeL-58" value="9/9" style="text;html=1;strokeColor=none;fillColor=none;align=center;verticalAlign=middle;whiteSpace=wrap;rounded=0;strokeWidth=2;" parent="1" vertex="1">
          <mxGeometry x="-60" y="135" width="60" height="30" as="geometry" />
        </mxCell>
        <mxCell id="lB4FinzbQt6ROny5KqeL-59" value="14/14" style="text;html=1;strokeColor=none;fillColor=none;align=center;verticalAlign=middle;whiteSpace=wrap;rounded=0;strokeWidth=2;" parent="1" vertex="1">
          <mxGeometry x="110" y="80" width="60" height="30" as="geometry" />
        </mxCell>
        <mxCell id="lB4FinzbQt6ROny5KqeL-60" value="14/14" style="text;html=1;strokeColor=none;fillColor=none;align=center;verticalAlign=middle;whiteSpace=wrap;rounded=0;strokeWidth=2;" parent="1" vertex="1">
          <mxGeometry x="-50" y="250" width="60" height="30" as="geometry" />
        </mxCell>
        <mxCell id="lB4FinzbQt6ROny5KqeL-61" value="19/19" style="text;html=1;strokeColor=none;fillColor=none;align=center;verticalAlign=middle;whiteSpace=wrap;rounded=0;strokeWidth=2;" parent="1" vertex="1">
          <mxGeometry x="110" y="200" width="60" height="30" as="geometry" />
        </mxCell>
        <mxCell id="lB4FinzbQt6ROny5KqeL-62" value="21/21" style="text;html=1;strokeColor=none;fillColor=none;align=center;verticalAlign=middle;whiteSpace=wrap;rounded=0;strokeWidth=2;" parent="1" vertex="1">
          <mxGeometry x="260" y="145" width="60" height="30" as="geometry" />
        </mxCell>
        <mxCell id="lB4FinzbQt6ROny5KqeL-63" value="32/32" style="text;html=1;strokeColor=none;fillColor=none;align=center;verticalAlign=middle;whiteSpace=wrap;rounded=0;strokeWidth=2;" parent="1" vertex="1">
          <mxGeometry x="410" y="90" width="60" height="30" as="geometry" />
        </mxCell>
        <mxCell id="lB4FinzbQt6ROny5KqeL-64" value="27/27" style="text;html=1;strokeColor=none;fillColor=none;align=center;verticalAlign=middle;whiteSpace=wrap;rounded=0;strokeWidth=2;" parent="1" vertex="1">
          <mxGeometry x="450" y="270" width="60" height="30" as="geometry" />
        </mxCell>
        <mxCell id="lB4FinzbQt6ROny5KqeL-65" value="14/21" style="text;html=1;strokeColor=none;fillColor=none;align=center;verticalAlign=middle;whiteSpace=wrap;rounded=0;strokeWidth=2;" parent="1" vertex="1">
          <mxGeometry x="190" y="330" width="60" height="30" as="geometry" />
        </mxCell>
        <mxCell id="lB4FinzbQt6ROny5KqeL-66" value="24/24" style="text;html=1;strokeColor=none;fillColor=none;align=center;verticalAlign=middle;whiteSpace=wrap;rounded=0;strokeWidth=2;" parent="1" vertex="1">
          <mxGeometry x="280" y="230" width="60" height="30" as="geometry" />
        </mxCell>
      </root>
    </mxGraphModel>
  </diagram>
  <diagram id="ga8aRQJi4S9bOmA3b5IT" name="Page-2">
    <mxGraphModel dx="1887" dy="1053" grid="1" gridSize="10" guides="1" tooltips="1" connect="1" arrows="1" fold="1" page="1" pageScale="1" pageWidth="850" pageHeight="1100" math="0" shadow="0">
      <root>
        <mxCell id="t2YgciknhnE9-WvplmRK-0" />
        <mxCell id="t2YgciknhnE9-WvplmRK-1" parent="t2YgciknhnE9-WvplmRK-0" />
        <mxCell id="dXuYYhe49qshn_mJ-lw2-0" value="Độc giả" style="rounded=0;whiteSpace=wrap;html=1;" parent="t2YgciknhnE9-WvplmRK-1" vertex="1">
          <mxGeometry x="400" y="320" width="120" height="60" as="geometry" />
        </mxCell>
        <mxCell id="dXuYYhe49qshn_mJ-lw2-1" value="người quản lý" style="rounded=0;whiteSpace=wrap;html=1;" parent="t2YgciknhnE9-WvplmRK-1" vertex="1">
          <mxGeometry x="580" y="130" width="120" height="60" as="geometry" />
        </mxCell>
        <mxCell id="dXuYYhe49qshn_mJ-lw2-2" value="thẻ độc giả" style="rounded=0;whiteSpace=wrap;html=1;" parent="t2YgciknhnE9-WvplmRK-1" vertex="1">
          <mxGeometry x="750" y="320" width="120" height="60" as="geometry" />
        </mxCell>
        <mxCell id="dXuYYhe49qshn_mJ-lw2-3" value="" style="edgeStyle=entityRelationEdgeStyle;fontSize=12;html=1;endArrow=ERmandOne;startArrow=none;rounded=0;entryX=1;entryY=0.75;entryDx=0;entryDy=0;exitX=0;exitY=0.5;exitDx=0;exitDy=0;" parent="t2YgciknhnE9-WvplmRK-1" source="dXuYYhe49qshn_mJ-lw2-4" target="dXuYYhe49qshn_mJ-lw2-0" edge="1">
          <mxGeometry width="100" height="100" relative="1" as="geometry">
            <mxPoint x="330" y="470" as="sourcePoint" />
            <mxPoint x="430" y="370" as="targetPoint" />
          </mxGeometry>
        </mxCell>
        <mxCell id="dXuYYhe49qshn_mJ-lw2-4" value="Của" style="shape=rhombus;perimeter=rhombusPerimeter;whiteSpace=wrap;html=1;align=center;" parent="t2YgciknhnE9-WvplmRK-1" vertex="1">
          <mxGeometry x="580" y="335" width="120" height="60" as="geometry" />
        </mxCell>
        <mxCell id="dXuYYhe49qshn_mJ-lw2-5" value="" style="edgeStyle=entityRelationEdgeStyle;fontSize=12;html=1;endArrow=none;startArrow=ERmandOne;rounded=0;entryX=1;entryY=0.5;entryDx=0;entryDy=0;exitX=0;exitY=0.75;exitDx=0;exitDy=0;" parent="t2YgciknhnE9-WvplmRK-1" source="dXuYYhe49qshn_mJ-lw2-2" target="dXuYYhe49qshn_mJ-lw2-4" edge="1">
          <mxGeometry width="100" height="100" relative="1" as="geometry">
            <mxPoint x="630" y="290" as="sourcePoint" />
            <mxPoint x="590" y="490" as="targetPoint" />
          </mxGeometry>
        </mxCell>
        <mxCell id="dXuYYhe49qshn_mJ-lw2-6" value="loại độc giả" style="ellipse;whiteSpace=wrap;html=1;align=center;" parent="t2YgciknhnE9-WvplmRK-1" vertex="1">
          <mxGeometry x="460" y="30" width="100" height="40" as="geometry" />
        </mxCell>
        <mxCell id="dXuYYhe49qshn_mJ-lw2-7" value="mã độc giả" style="ellipse;whiteSpace=wrap;html=1;align=center;fontStyle=5;" parent="t2YgciknhnE9-WvplmRK-1" vertex="1">
          <mxGeometry x="170" y="360" width="100" height="40" as="geometry" />
        </mxCell>
        <mxCell id="dXuYYhe49qshn_mJ-lw2-8" value="loại độc giả" style="ellipse;whiteSpace=wrap;html=1;align=center;" parent="t2YgciknhnE9-WvplmRK-1" vertex="1">
          <mxGeometry x="180" y="310" width="100" height="40" as="geometry" />
        </mxCell>
        <mxCell id="dXuYYhe49qshn_mJ-lw2-9" value="" style="endArrow=none;html=1;rounded=0;entryX=0;entryY=0.75;entryDx=0;entryDy=0;exitX=1;exitY=0.5;exitDx=0;exitDy=0;" parent="t2YgciknhnE9-WvplmRK-1" source="dXuYYhe49qshn_mJ-lw2-7" target="dXuYYhe49qshn_mJ-lw2-0" edge="1">
          <mxGeometry relative="1" as="geometry">
            <mxPoint x="280" y="230" as="sourcePoint" />
            <mxPoint x="440" y="230" as="targetPoint" />
          </mxGeometry>
        </mxCell>
        <mxCell id="dXuYYhe49qshn_mJ-lw2-10" value="tên độc giả" style="ellipse;whiteSpace=wrap;html=1;align=center;" parent="t2YgciknhnE9-WvplmRK-1" vertex="1">
          <mxGeometry x="314" y="440" width="100" height="40" as="geometry" />
        </mxCell>
        <mxCell id="dXuYYhe49qshn_mJ-lw2-11" value="nơi ở hiện tại" style="ellipse;whiteSpace=wrap;html=1;align=center;" parent="t2YgciknhnE9-WvplmRK-1" vertex="1">
          <mxGeometry x="400" y="480" width="100" height="40" as="geometry" />
        </mxCell>
        <mxCell id="dXuYYhe49qshn_mJ-lw2-12" value="chứng minh thư" style="ellipse;whiteSpace=wrap;html=1;align=center;" parent="t2YgciknhnE9-WvplmRK-1" vertex="1">
          <mxGeometry x="500" y="450" width="100" height="40" as="geometry" />
        </mxCell>
        <mxCell id="dXuYYhe49qshn_mJ-lw2-13" value="số điện thoại" style="ellipse;whiteSpace=wrap;html=1;align=center;" parent="t2YgciknhnE9-WvplmRK-1" vertex="1">
          <mxGeometry x="220" y="410" width="100" height="40" as="geometry" />
        </mxCell>
        <mxCell id="dXuYYhe49qshn_mJ-lw2-14" value="email" style="ellipse;whiteSpace=wrap;html=1;align=center;" parent="t2YgciknhnE9-WvplmRK-1" vertex="1">
          <mxGeometry x="520" y="400" width="100" height="40" as="geometry" />
        </mxCell>
        <mxCell id="dXuYYhe49qshn_mJ-lw2-15" value="trường, lớp, khoá, năm thứ" style="ellipse;whiteSpace=wrap;html=1;align=center;" parent="t2YgciknhnE9-WvplmRK-1" vertex="1">
          <mxGeometry x="190" y="250" width="100" height="40" as="geometry" />
        </mxCell>
        <mxCell id="dXuYYhe49qshn_mJ-lw2-16" value="nơi đang làm việc" style="ellipse;whiteSpace=wrap;html=1;align=center;" parent="t2YgciknhnE9-WvplmRK-1" vertex="1">
          <mxGeometry x="300" y="230" width="100" height="40" as="geometry" />
        </mxCell>
        <mxCell id="dXuYYhe49qshn_mJ-lw2-17" value="" style="endArrow=none;html=1;rounded=0;entryX=0;entryY=0;entryDx=0;entryDy=0;exitX=1;exitY=0.5;exitDx=0;exitDy=0;" parent="t2YgciknhnE9-WvplmRK-1" source="dXuYYhe49qshn_mJ-lw2-15" target="dXuYYhe49qshn_mJ-lw2-0" edge="1">
          <mxGeometry relative="1" as="geometry">
            <mxPoint x="350" y="230" as="sourcePoint" />
            <mxPoint x="390" y="330" as="targetPoint" />
          </mxGeometry>
        </mxCell>
        <mxCell id="dXuYYhe49qshn_mJ-lw2-18" value="" style="endArrow=none;html=1;rounded=0;entryX=0.25;entryY=0;entryDx=0;entryDy=0;exitX=1;exitY=1;exitDx=0;exitDy=0;" parent="t2YgciknhnE9-WvplmRK-1" source="dXuYYhe49qshn_mJ-lw2-16" target="dXuYYhe49qshn_mJ-lw2-0" edge="1">
          <mxGeometry relative="1" as="geometry">
            <mxPoint x="360" y="240" as="sourcePoint" />
            <mxPoint x="400" y="340" as="targetPoint" />
          </mxGeometry>
        </mxCell>
        <mxCell id="dXuYYhe49qshn_mJ-lw2-19" value="" style="endArrow=none;html=1;rounded=0;entryX=0.5;entryY=1;entryDx=0;entryDy=0;exitX=0.5;exitY=0;exitDx=0;exitDy=0;" parent="t2YgciknhnE9-WvplmRK-1" source="dXuYYhe49qshn_mJ-lw2-11" target="dXuYYhe49qshn_mJ-lw2-0" edge="1">
          <mxGeometry relative="1" as="geometry">
            <mxPoint x="370" y="250" as="sourcePoint" />
            <mxPoint x="410" y="350" as="targetPoint" />
          </mxGeometry>
        </mxCell>
        <mxCell id="dXuYYhe49qshn_mJ-lw2-20" value="" style="endArrow=none;html=1;rounded=0;entryX=0.5;entryY=0;entryDx=0;entryDy=0;exitX=0.25;exitY=1;exitDx=0;exitDy=0;" parent="t2YgciknhnE9-WvplmRK-1" source="dXuYYhe49qshn_mJ-lw2-0" target="dXuYYhe49qshn_mJ-lw2-10" edge="1">
          <mxGeometry relative="1" as="geometry">
            <mxPoint x="380" y="260" as="sourcePoint" />
            <mxPoint x="420" y="360" as="targetPoint" />
          </mxGeometry>
        </mxCell>
        <mxCell id="dXuYYhe49qshn_mJ-lw2-21" value="" style="endArrow=none;html=1;rounded=0;entryX=0;entryY=0;entryDx=0;entryDy=0;exitX=0.75;exitY=1;exitDx=0;exitDy=0;" parent="t2YgciknhnE9-WvplmRK-1" source="dXuYYhe49qshn_mJ-lw2-0" target="dXuYYhe49qshn_mJ-lw2-12" edge="1">
          <mxGeometry relative="1" as="geometry">
            <mxPoint x="390" y="270" as="sourcePoint" />
            <mxPoint x="430" y="370" as="targetPoint" />
          </mxGeometry>
        </mxCell>
        <mxCell id="dXuYYhe49qshn_mJ-lw2-22" value="" style="endArrow=none;html=1;rounded=0;entryX=0;entryY=1;entryDx=0;entryDy=0;exitX=1;exitY=0;exitDx=0;exitDy=0;" parent="t2YgciknhnE9-WvplmRK-1" source="dXuYYhe49qshn_mJ-lw2-13" target="dXuYYhe49qshn_mJ-lw2-0" edge="1">
          <mxGeometry relative="1" as="geometry">
            <mxPoint x="400" y="280" as="sourcePoint" />
            <mxPoint x="440" y="380" as="targetPoint" />
          </mxGeometry>
        </mxCell>
        <mxCell id="dXuYYhe49qshn_mJ-lw2-23" value="" style="endArrow=none;html=1;rounded=0;exitX=1;exitY=1;exitDx=0;exitDy=0;" parent="t2YgciknhnE9-WvplmRK-1" source="dXuYYhe49qshn_mJ-lw2-0" target="dXuYYhe49qshn_mJ-lw2-14" edge="1">
          <mxGeometry relative="1" as="geometry">
            <mxPoint x="410" y="290" as="sourcePoint" />
            <mxPoint x="450" y="390" as="targetPoint" />
          </mxGeometry>
        </mxCell>
        <mxCell id="dXuYYhe49qshn_mJ-lw2-24" value="" style="endArrow=none;html=1;rounded=0;entryX=0.25;entryY=0;entryDx=0;entryDy=0;exitX=0.5;exitY=1;exitDx=0;exitDy=0;" parent="t2YgciknhnE9-WvplmRK-1" source="dXuYYhe49qshn_mJ-lw2-6" target="dXuYYhe49qshn_mJ-lw2-1" edge="1">
          <mxGeometry relative="1" as="geometry">
            <mxPoint x="860" y="-20" as="sourcePoint" />
            <mxPoint x="900" y="80" as="targetPoint" />
          </mxGeometry>
        </mxCell>
        <mxCell id="dXuYYhe49qshn_mJ-lw2-25" value="tên nhân viên" style="ellipse;whiteSpace=wrap;html=1;align=center;" parent="t2YgciknhnE9-WvplmRK-1" vertex="1">
          <mxGeometry x="400" y="70" width="100" height="40" as="geometry" />
        </mxCell>
        <mxCell id="dXuYYhe49qshn_mJ-lw2-26" value="" style="endArrow=none;html=1;rounded=0;entryX=1;entryY=1;entryDx=0;entryDy=0;exitX=0;exitY=0;exitDx=0;exitDy=0;" parent="t2YgciknhnE9-WvplmRK-1" source="dXuYYhe49qshn_mJ-lw2-1" target="dXuYYhe49qshn_mJ-lw2-25" edge="1">
          <mxGeometry relative="1" as="geometry">
            <mxPoint x="610" y="130" as="sourcePoint" />
            <mxPoint x="540" y="50" as="targetPoint" />
          </mxGeometry>
        </mxCell>
        <mxCell id="dXuYYhe49qshn_mJ-lw2-27" value="mã độc giả" style="ellipse;whiteSpace=wrap;html=1;align=center;fontStyle=5;" parent="t2YgciknhnE9-WvplmRK-1" vertex="1">
          <mxGeometry x="900" y="300" width="100" height="40" as="geometry" />
        </mxCell>
        <mxCell id="dXuYYhe49qshn_mJ-lw2-28" value="" style="endArrow=none;html=1;rounded=0;entryX=1;entryY=0.25;entryDx=0;entryDy=0;exitX=0;exitY=0.5;exitDx=0;exitDy=0;" parent="t2YgciknhnE9-WvplmRK-1" source="dXuYYhe49qshn_mJ-lw2-27" target="dXuYYhe49qshn_mJ-lw2-2" edge="1">
          <mxGeometry relative="1" as="geometry">
            <mxPoint x="300" y="250" as="sourcePoint" />
            <mxPoint x="360" y="330" as="targetPoint" />
          </mxGeometry>
        </mxCell>
        <mxCell id="dXuYYhe49qshn_mJ-lw2-29" value="tên độc giả" style="ellipse;whiteSpace=wrap;html=1;align=center;" parent="t2YgciknhnE9-WvplmRK-1" vertex="1">
          <mxGeometry x="700" y="410" width="100" height="40" as="geometry" />
        </mxCell>
        <mxCell id="dXuYYhe49qshn_mJ-lw2-30" value="" style="endArrow=none;html=1;rounded=0;entryX=0.5;entryY=0;entryDx=0;entryDy=0;exitX=0.25;exitY=1;exitDx=0;exitDy=0;" parent="t2YgciknhnE9-WvplmRK-1" source="dXuYYhe49qshn_mJ-lw2-2" target="dXuYYhe49qshn_mJ-lw2-29" edge="1">
          <mxGeometry relative="1" as="geometry">
            <mxPoint x="740" y="230" as="sourcePoint" />
            <mxPoint x="720" y="330" as="targetPoint" />
          </mxGeometry>
        </mxCell>
        <mxCell id="dXuYYhe49qshn_mJ-lw2-31" value="" style="endArrow=none;html=1;rounded=0;entryX=1;entryY=0.75;entryDx=0;entryDy=0;exitX=0;exitY=0.5;exitDx=0;exitDy=0;" parent="t2YgciknhnE9-WvplmRK-1" source="dXuYYhe49qshn_mJ-lw2-34" target="dXuYYhe49qshn_mJ-lw2-2" edge="1">
          <mxGeometry relative="1" as="geometry">
            <mxPoint x="790" y="240" as="sourcePoint" />
            <mxPoint x="730" y="340" as="targetPoint" />
          </mxGeometry>
        </mxCell>
        <mxCell id="dXuYYhe49qshn_mJ-lw2-32" value="" style="endArrow=none;html=1;rounded=0;entryX=1;entryY=0.5;entryDx=0;entryDy=0;exitX=0;exitY=0.25;exitDx=0;exitDy=0;" parent="t2YgciknhnE9-WvplmRK-1" source="dXuYYhe49qshn_mJ-lw2-0" target="dXuYYhe49qshn_mJ-lw2-8" edge="1">
          <mxGeometry relative="1" as="geometry">
            <mxPoint x="800" y="250" as="sourcePoint" />
            <mxPoint x="780" y="330" as="targetPoint" />
          </mxGeometry>
        </mxCell>
        <mxCell id="dXuYYhe49qshn_mJ-lw2-33" value="" style="endArrow=none;html=1;rounded=0;entryX=0.75;entryY=1;entryDx=0;entryDy=0;exitX=0.5;exitY=0;exitDx=0;exitDy=0;" parent="t2YgciknhnE9-WvplmRK-1" source="dXuYYhe49qshn_mJ-lw2-35" target="dXuYYhe49qshn_mJ-lw2-2" edge="1">
          <mxGeometry relative="1" as="geometry">
            <mxPoint x="790" y="450" as="sourcePoint" />
            <mxPoint x="900" y="490" as="targetPoint" />
          </mxGeometry>
        </mxCell>
        <mxCell id="dXuYYhe49qshn_mJ-lw2-34" value="loại độc giả" style="ellipse;whiteSpace=wrap;html=1;align=center;" parent="t2YgciknhnE9-WvplmRK-1" vertex="1">
          <mxGeometry x="900" y="360" width="100" height="40" as="geometry" />
        </mxCell>
        <mxCell id="dXuYYhe49qshn_mJ-lw2-35" value="thời gian hiệu lực" style="ellipse;whiteSpace=wrap;html=1;align=center;" parent="t2YgciknhnE9-WvplmRK-1" vertex="1">
          <mxGeometry x="820" y="410" width="100" height="40" as="geometry" />
        </mxCell>
        <mxCell id="dXuYYhe49qshn_mJ-lw2-36" value="Quản lý" style="shape=rhombus;perimeter=rhombusPerimeter;whiteSpace=wrap;html=1;align=center;" parent="t2YgciknhnE9-WvplmRK-1" vertex="1">
          <mxGeometry x="720" y="210" width="120" height="60" as="geometry" />
        </mxCell>
        <mxCell id="dXuYYhe49qshn_mJ-lw2-37" value="Quản lý" style="shape=rhombus;perimeter=rhombusPerimeter;whiteSpace=wrap;html=1;align=center;rotation=0;" parent="t2YgciknhnE9-WvplmRK-1" vertex="1">
          <mxGeometry x="430" y="210" width="120" height="60" as="geometry" />
        </mxCell>
        <mxCell id="dXuYYhe49qshn_mJ-lw2-38" value="" style="fontSize=12;html=1;endArrow=ERoneToMany;rounded=0;entryX=0.75;entryY=0;entryDx=0;entryDy=0;exitX=0.5;exitY=1;exitDx=0;exitDy=0;" parent="t2YgciknhnE9-WvplmRK-1" source="dXuYYhe49qshn_mJ-lw2-37" target="dXuYYhe49qshn_mJ-lw2-0" edge="1">
          <mxGeometry width="100" height="100" relative="1" as="geometry">
            <mxPoint x="490" y="335" as="sourcePoint" />
            <mxPoint x="620" y="220" as="targetPoint" />
          </mxGeometry>
        </mxCell>
        <mxCell id="dXuYYhe49qshn_mJ-lw2-39" value="" style="fontSize=12;html=1;endArrow=ERmandOne;rounded=0;verticalAlign=middle;entryX=0;entryY=0.5;entryDx=0;entryDy=0;exitX=0.5;exitY=0;exitDx=0;exitDy=0;edgeStyle=orthogonalEdgeStyle;" parent="t2YgciknhnE9-WvplmRK-1" source="dXuYYhe49qshn_mJ-lw2-37" target="dXuYYhe49qshn_mJ-lw2-1" edge="1">
          <mxGeometry width="100" height="100" relative="1" as="geometry">
            <mxPoint x="530" y="280" as="sourcePoint" />
            <mxPoint x="640" y="290" as="targetPoint" />
          </mxGeometry>
        </mxCell>
        <mxCell id="dXuYYhe49qshn_mJ-lw2-40" value="" style="fontSize=12;html=1;endArrow=ERmandOne;rounded=0;verticalAlign=middle;exitX=0.5;exitY=0;exitDx=0;exitDy=0;entryX=1;entryY=0.5;entryDx=0;entryDy=0;edgeStyle=orthogonalEdgeStyle;" parent="t2YgciknhnE9-WvplmRK-1" source="dXuYYhe49qshn_mJ-lw2-36" target="dXuYYhe49qshn_mJ-lw2-1" edge="1">
          <mxGeometry width="100" height="100" relative="1" as="geometry">
            <mxPoint x="510" y="170" as="sourcePoint" />
            <mxPoint x="750" y="200" as="targetPoint" />
          </mxGeometry>
        </mxCell>
        <mxCell id="dXuYYhe49qshn_mJ-lw2-41" value="" style="fontSize=12;html=1;endArrow=ERoneToMany;rounded=0;entryX=0.25;entryY=0;entryDx=0;entryDy=0;exitX=0.5;exitY=1;exitDx=0;exitDy=0;" parent="t2YgciknhnE9-WvplmRK-1" source="dXuYYhe49qshn_mJ-lw2-36" target="dXuYYhe49qshn_mJ-lw2-2" edge="1">
          <mxGeometry width="100" height="100" relative="1" as="geometry">
            <mxPoint x="450" y="200" as="sourcePoint" />
            <mxPoint x="450" y="330" as="targetPoint" />
          </mxGeometry>
        </mxCell>
        <mxCell id="dXuYYhe49qshn_mJ-lw2-42" value="chứng minh thư" style="ellipse;whiteSpace=wrap;html=1;align=center;" parent="t2YgciknhnE9-WvplmRK-1" vertex="1">
          <mxGeometry x="560" y="50" width="100" height="40" as="geometry" />
        </mxCell>
        <mxCell id="dXuYYhe49qshn_mJ-lw2-43" value="" style="endArrow=none;html=1;rounded=0;entryX=0.75;entryY=0;entryDx=0;entryDy=0;exitX=0.5;exitY=1;exitDx=0;exitDy=0;" parent="t2YgciknhnE9-WvplmRK-1" source="dXuYYhe49qshn_mJ-lw2-45" target="dXuYYhe49qshn_mJ-lw2-1" edge="1">
          <mxGeometry relative="1" as="geometry">
            <mxPoint x="720" y="90" as="sourcePoint" />
            <mxPoint x="610" y="130" as="targetPoint" />
          </mxGeometry>
        </mxCell>
        <mxCell id="dXuYYhe49qshn_mJ-lw2-44" value="" style="endArrow=none;html=1;rounded=0;entryX=0.5;entryY=0;entryDx=0;entryDy=0;exitX=0.5;exitY=1;exitDx=0;exitDy=0;" parent="t2YgciknhnE9-WvplmRK-1" source="dXuYYhe49qshn_mJ-lw2-42" target="dXuYYhe49qshn_mJ-lw2-1" edge="1">
          <mxGeometry relative="1" as="geometry">
            <mxPoint x="574" y="80" as="sourcePoint" />
            <mxPoint x="620" y="140" as="targetPoint" />
          </mxGeometry>
        </mxCell>
        <mxCell id="dXuYYhe49qshn_mJ-lw2-45" value="mã nhân viên" style="ellipse;whiteSpace=wrap;html=1;align=center;fontStyle=5" parent="t2YgciknhnE9-WvplmRK-1" vertex="1">
          <mxGeometry x="660" y="30" width="100" height="40" as="geometry" />
        </mxCell>
        <mxCell id="dXuYYhe49qshn_mJ-lw2-46" value="số điện thoại" style="ellipse;whiteSpace=wrap;html=1;align=center;" parent="t2YgciknhnE9-WvplmRK-1" vertex="1">
          <mxGeometry x="740" y="75" width="100" height="30" as="geometry" />
        </mxCell>
        <mxCell id="dXuYYhe49qshn_mJ-lw2-47" value="" style="endArrow=none;html=1;rounded=0;verticalAlign=middle;exitX=1;exitY=0;exitDx=0;exitDy=0;entryX=0;entryY=0.5;entryDx=0;entryDy=0;" parent="t2YgciknhnE9-WvplmRK-1" source="dXuYYhe49qshn_mJ-lw2-1" target="dXuYYhe49qshn_mJ-lw2-46" edge="1">
          <mxGeometry relative="1" as="geometry">
            <mxPoint x="920" y="180" as="sourcePoint" />
            <mxPoint x="1080" y="180" as="targetPoint" />
          </mxGeometry>
        </mxCell>
        <mxCell id="dXuYYhe49qshn_mJ-lw2-48" value="email" style="ellipse;whiteSpace=wrap;html=1;align=center;" parent="t2YgciknhnE9-WvplmRK-1" vertex="1">
          <mxGeometry x="780" y="120" width="100" height="40" as="geometry" />
        </mxCell>
        <mxCell id="dXuYYhe49qshn_mJ-lw2-49" value="" style="endArrow=none;html=1;rounded=0;verticalAlign=middle;entryX=0;entryY=0.5;entryDx=0;entryDy=0;exitX=1;exitY=0.25;exitDx=0;exitDy=0;" parent="t2YgciknhnE9-WvplmRK-1" source="dXuYYhe49qshn_mJ-lw2-1" target="dXuYYhe49qshn_mJ-lw2-48" edge="1">
          <mxGeometry relative="1" as="geometry">
            <mxPoint x="560" y="140" as="sourcePoint" />
            <mxPoint x="720" y="140" as="targetPoint" />
          </mxGeometry>
        </mxCell>
        <mxCell id="CjAh5pv60ER6U4ZRev-i-37" style="edgeStyle=orthogonalEdgeStyle;rounded=0;orthogonalLoop=1;jettySize=auto;html=1;exitX=1;exitY=0;exitDx=0;exitDy=0;entryX=0.75;entryY=0;entryDx=0;entryDy=0;" edge="1" parent="t2YgciknhnE9-WvplmRK-1" source="CjAh5pv60ER6U4ZRev-i-43" target="CjAh5pv60ER6U4ZRev-i-59">
          <mxGeometry relative="1" as="geometry" />
        </mxCell>
        <mxCell id="CjAh5pv60ER6U4ZRev-i-38" value="CCCD,&lt;br&gt;&amp;nbsp;thẻ sinh viên" style="edgeLabel;html=1;align=center;verticalAlign=middle;resizable=0;points=[];" vertex="1" connectable="0" parent="CjAh5pv60ER6U4ZRev-i-37">
          <mxGeometry x="-0.1209" y="1" relative="1" as="geometry">
            <mxPoint x="4" y="-1" as="offset" />
          </mxGeometry>
        </mxCell>
        <mxCell id="CjAh5pv60ER6U4ZRev-i-39" style="edgeStyle=orthogonalEdgeStyle;rounded=0;orthogonalLoop=1;jettySize=auto;html=1;exitX=1;exitY=1;exitDx=0;exitDy=0;entryX=0.5;entryY=0;entryDx=0;entryDy=0;" edge="1" parent="t2YgciknhnE9-WvplmRK-1" source="CjAh5pv60ER6U4ZRev-i-43" target="CjAh5pv60ER6U4ZRev-i-59">
          <mxGeometry relative="1" as="geometry">
            <mxPoint x="890" y="370" as="targetPoint" />
            <Array as="points">
              <mxPoint x="750" y="318" />
            </Array>
          </mxGeometry>
        </mxCell>
        <mxCell id="CjAh5pv60ER6U4ZRev-i-40" value="phiếu đăng ký, &lt;br&gt;sửa đổi" style="edgeLabel;html=1;align=center;verticalAlign=middle;resizable=0;points=[];" vertex="1" connectable="0" parent="CjAh5pv60ER6U4ZRev-i-39">
          <mxGeometry x="-0.1575" y="2" relative="1" as="geometry">
            <mxPoint x="-4" y="4" as="offset" />
          </mxGeometry>
        </mxCell>
        <mxCell id="CjAh5pv60ER6U4ZRev-i-41" style="edgeStyle=orthogonalEdgeStyle;rounded=0;orthogonalLoop=1;jettySize=auto;html=1;entryX=0.75;entryY=0;entryDx=0;entryDy=0;" edge="1" parent="t2YgciknhnE9-WvplmRK-1" source="CjAh5pv60ER6U4ZRev-i-43" target="CjAh5pv60ER6U4ZRev-i-50">
          <mxGeometry relative="1" as="geometry">
            <Array as="points">
              <mxPoint x="570" y="373" />
              <mxPoint x="490" y="373" />
            </Array>
          </mxGeometry>
        </mxCell>
        <mxCell id="CjAh5pv60ER6U4ZRev-i-42" value="thẻ độc giả" style="edgeLabel;html=1;align=center;verticalAlign=middle;resizable=0;points=[];" vertex="1" connectable="0" parent="CjAh5pv60ER6U4ZRev-i-41">
          <mxGeometry x="0.3995" y="-1" relative="1" as="geometry">
            <mxPoint x="35" as="offset" />
          </mxGeometry>
        </mxCell>
        <mxCell id="CjAh5pv60ER6U4ZRev-i-43" value="1.1. Đăng ký mới" style="ellipse;whiteSpace=wrap;html=1;" vertex="1" parent="t2YgciknhnE9-WvplmRK-1">
          <mxGeometry x="540" y="250" width="120" height="80" as="geometry" />
        </mxCell>
        <mxCell id="CjAh5pv60ER6U4ZRev-i-44" style="edgeStyle=orthogonalEdgeStyle;rounded=0;orthogonalLoop=1;jettySize=auto;html=1;exitX=0.25;exitY=0;exitDx=0;exitDy=0;entryX=0;entryY=0;entryDx=0;entryDy=0;" edge="1" parent="t2YgciknhnE9-WvplmRK-1" source="CjAh5pv60ER6U4ZRev-i-50" target="CjAh5pv60ER6U4ZRev-i-43">
          <mxGeometry relative="1" as="geometry">
            <Array as="points">
              <mxPoint x="410" y="420" />
              <mxPoint x="410" y="262" />
            </Array>
          </mxGeometry>
        </mxCell>
        <mxCell id="CjAh5pv60ER6U4ZRev-i-45" value="CCCD,&lt;br&gt;&amp;nbsp;thẻ sinh viên" style="edgeLabel;html=1;align=center;verticalAlign=middle;resizable=0;points=[];" vertex="1" connectable="0" parent="CjAh5pv60ER6U4ZRev-i-44">
          <mxGeometry x="0.1346" y="-2" relative="1" as="geometry">
            <mxPoint x="18" y="-4" as="offset" />
          </mxGeometry>
        </mxCell>
        <mxCell id="CjAh5pv60ER6U4ZRev-i-46" style="edgeStyle=orthogonalEdgeStyle;rounded=0;orthogonalLoop=1;jettySize=auto;html=1;exitX=0.25;exitY=1;exitDx=0;exitDy=0;entryX=0;entryY=1;entryDx=0;entryDy=0;" edge="1" parent="t2YgciknhnE9-WvplmRK-1" source="CjAh5pv60ER6U4ZRev-i-50" target="CjAh5pv60ER6U4ZRev-i-66">
          <mxGeometry relative="1" as="geometry">
            <Array as="points">
              <mxPoint x="410" y="490" />
              <mxPoint x="410" y="658" />
            </Array>
          </mxGeometry>
        </mxCell>
        <mxCell id="CjAh5pv60ER6U4ZRev-i-47" value="thẻ độc giả" style="edgeLabel;html=1;align=center;verticalAlign=middle;resizable=0;points=[];" vertex="1" connectable="0" parent="CjAh5pv60ER6U4ZRev-i-46">
          <mxGeometry x="-0.1071" y="-1" relative="1" as="geometry">
            <mxPoint x="1" y="18" as="offset" />
          </mxGeometry>
        </mxCell>
        <mxCell id="CjAh5pv60ER6U4ZRev-i-48" style="edgeStyle=orthogonalEdgeStyle;rounded=0;orthogonalLoop=1;jettySize=auto;html=1;exitX=0.5;exitY=0;exitDx=0;exitDy=0;entryX=0;entryY=1;entryDx=0;entryDy=0;" edge="1" parent="t2YgciknhnE9-WvplmRK-1" source="CjAh5pv60ER6U4ZRev-i-50" target="CjAh5pv60ER6U4ZRev-i-43">
          <mxGeometry relative="1" as="geometry">
            <Array as="points">
              <mxPoint x="460" y="318" />
            </Array>
          </mxGeometry>
        </mxCell>
        <mxCell id="CjAh5pv60ER6U4ZRev-i-49" value="phiếu đăng ký, &lt;br&gt;sửa đổi" style="edgeLabel;html=1;align=center;verticalAlign=middle;resizable=0;points=[];" vertex="1" connectable="0" parent="CjAh5pv60ER6U4ZRev-i-48">
          <mxGeometry x="-0.1659" y="2" relative="1" as="geometry">
            <mxPoint x="12" y="-15" as="offset" />
          </mxGeometry>
        </mxCell>
        <mxCell id="CjAh5pv60ER6U4ZRev-i-50" value="Độc giả" style="shape=ext;double=1;rounded=0;whiteSpace=wrap;html=1;" vertex="1" parent="t2YgciknhnE9-WvplmRK-1">
          <mxGeometry x="400" y="420" width="120" height="70" as="geometry" />
        </mxCell>
        <mxCell id="CjAh5pv60ER6U4ZRev-i-51" style="edgeStyle=orthogonalEdgeStyle;rounded=0;orthogonalLoop=1;jettySize=auto;html=1;exitX=0.5;exitY=1;exitDx=0;exitDy=0;entryX=1;entryY=0;entryDx=0;entryDy=0;" edge="1" parent="t2YgciknhnE9-WvplmRK-1" source="CjAh5pv60ER6U4ZRev-i-59" target="CjAh5pv60ER6U4ZRev-i-66">
          <mxGeometry relative="1" as="geometry">
            <Array as="points">
              <mxPoint x="750" y="602" />
            </Array>
          </mxGeometry>
        </mxCell>
        <mxCell id="CjAh5pv60ER6U4ZRev-i-52" value="phiếu đăng ký,&lt;br&gt;&amp;nbsp;sửa đổi" style="edgeLabel;html=1;align=center;verticalAlign=middle;resizable=0;points=[];" vertex="1" connectable="0" parent="CjAh5pv60ER6U4ZRev-i-51">
          <mxGeometry x="0.1088" y="-1" relative="1" as="geometry">
            <mxPoint x="-5" as="offset" />
          </mxGeometry>
        </mxCell>
        <mxCell id="CjAh5pv60ER6U4ZRev-i-53" style="edgeStyle=orthogonalEdgeStyle;rounded=0;orthogonalLoop=1;jettySize=auto;html=1;exitX=0.25;exitY=1;exitDx=0;exitDy=0;entryX=0.703;entryY=0.053;entryDx=0;entryDy=0;entryPerimeter=0;" edge="1" parent="t2YgciknhnE9-WvplmRK-1" source="CjAh5pv60ER6U4ZRev-i-59" target="CjAh5pv60ER6U4ZRev-i-66">
          <mxGeometry relative="1" as="geometry" />
        </mxCell>
        <mxCell id="CjAh5pv60ER6U4ZRev-i-54" value="thẻ độc giả" style="edgeLabel;html=1;align=center;verticalAlign=middle;resizable=0;points=[];" vertex="1" connectable="0" parent="CjAh5pv60ER6U4ZRev-i-53">
          <mxGeometry x="0.17" y="-1" relative="1" as="geometry">
            <mxPoint x="7" as="offset" />
          </mxGeometry>
        </mxCell>
        <mxCell id="CjAh5pv60ER6U4ZRev-i-55" style="edgeStyle=orthogonalEdgeStyle;rounded=0;orthogonalLoop=1;jettySize=auto;html=1;exitX=0.25;exitY=0;exitDx=0;exitDy=0;entryX=0.71;entryY=0.972;entryDx=0;entryDy=0;entryPerimeter=0;" edge="1" parent="t2YgciknhnE9-WvplmRK-1" source="CjAh5pv60ER6U4ZRev-i-59" target="CjAh5pv60ER6U4ZRev-i-43">
          <mxGeometry relative="1" as="geometry" />
        </mxCell>
        <mxCell id="CjAh5pv60ER6U4ZRev-i-56" value="thẻ độc giả" style="edgeLabel;html=1;align=center;verticalAlign=middle;resizable=0;points=[];" vertex="1" connectable="0" parent="CjAh5pv60ER6U4ZRev-i-55">
          <mxGeometry x="0.2708" y="-1" relative="1" as="geometry">
            <mxPoint x="14" as="offset" />
          </mxGeometry>
        </mxCell>
        <mxCell id="CjAh5pv60ER6U4ZRev-i-57" style="edgeStyle=orthogonalEdgeStyle;rounded=0;orthogonalLoop=1;jettySize=auto;html=1;exitX=1;exitY=0.25;exitDx=0;exitDy=0;entryX=0;entryY=0.5;entryDx=0;entryDy=0;" edge="1" parent="t2YgciknhnE9-WvplmRK-1" source="CjAh5pv60ER6U4ZRev-i-59" target="CjAh5pv60ER6U4ZRev-i-69">
          <mxGeometry relative="1" as="geometry" />
        </mxCell>
        <mxCell id="CjAh5pv60ER6U4ZRev-i-58" value="nhập thông tin" style="edgeLabel;html=1;align=center;verticalAlign=middle;resizable=0;points=[];" vertex="1" connectable="0" parent="CjAh5pv60ER6U4ZRev-i-57">
          <mxGeometry x="-0.2426" y="2" relative="1" as="geometry">
            <mxPoint as="offset" />
          </mxGeometry>
        </mxCell>
        <mxCell id="CjAh5pv60ER6U4ZRev-i-59" value="Quản lý" style="shape=ext;double=1;rounded=0;whiteSpace=wrap;html=1;" vertex="1" parent="t2YgciknhnE9-WvplmRK-1">
          <mxGeometry x="690" y="420" width="120" height="70" as="geometry" />
        </mxCell>
        <mxCell id="CjAh5pv60ER6U4ZRev-i-60" style="edgeStyle=orthogonalEdgeStyle;rounded=0;orthogonalLoop=1;jettySize=auto;html=1;exitX=1;exitY=1;exitDx=0;exitDy=0;entryX=0.75;entryY=1;entryDx=0;entryDy=0;" edge="1" parent="t2YgciknhnE9-WvplmRK-1" source="CjAh5pv60ER6U4ZRev-i-66" target="CjAh5pv60ER6U4ZRev-i-59">
          <mxGeometry relative="1" as="geometry" />
        </mxCell>
        <mxCell id="CjAh5pv60ER6U4ZRev-i-61" value="thẻ độc giả" style="edgeLabel;html=1;align=center;verticalAlign=middle;resizable=0;points=[];" vertex="1" connectable="0" parent="CjAh5pv60ER6U4ZRev-i-60">
          <mxGeometry x="0.1006" y="-1" relative="1" as="geometry">
            <mxPoint x="-1" y="8" as="offset" />
          </mxGeometry>
        </mxCell>
        <mxCell id="CjAh5pv60ER6U4ZRev-i-62" style="edgeStyle=orthogonalEdgeStyle;rounded=0;orthogonalLoop=1;jettySize=auto;html=1;exitX=0;exitY=0;exitDx=0;exitDy=0;entryX=0.5;entryY=1;entryDx=0;entryDy=0;" edge="1" parent="t2YgciknhnE9-WvplmRK-1" source="CjAh5pv60ER6U4ZRev-i-66" target="CjAh5pv60ER6U4ZRev-i-50">
          <mxGeometry relative="1" as="geometry">
            <Array as="points">
              <mxPoint x="460" y="602" />
            </Array>
          </mxGeometry>
        </mxCell>
        <mxCell id="CjAh5pv60ER6U4ZRev-i-63" value="phiếu đăng ký, &lt;br&gt;sửa đổi" style="edgeLabel;html=1;align=center;verticalAlign=middle;resizable=0;points=[];" vertex="1" connectable="0" parent="CjAh5pv60ER6U4ZRev-i-62">
          <mxGeometry x="0.1667" y="-2" relative="1" as="geometry">
            <mxPoint x="8" y="23" as="offset" />
          </mxGeometry>
        </mxCell>
        <mxCell id="CjAh5pv60ER6U4ZRev-i-64" style="edgeStyle=orthogonalEdgeStyle;rounded=0;orthogonalLoop=1;jettySize=auto;html=1;entryX=0.75;entryY=1;entryDx=0;entryDy=0;" edge="1" parent="t2YgciknhnE9-WvplmRK-1" source="CjAh5pv60ER6U4ZRev-i-66" target="CjAh5pv60ER6U4ZRev-i-50">
          <mxGeometry relative="1" as="geometry">
            <Array as="points">
              <mxPoint x="570" y="538" />
              <mxPoint x="490" y="538" />
            </Array>
          </mxGeometry>
        </mxCell>
        <mxCell id="CjAh5pv60ER6U4ZRev-i-65" value="thẻ độc giả" style="edgeLabel;html=1;align=center;verticalAlign=middle;resizable=0;points=[];" vertex="1" connectable="0" parent="CjAh5pv60ER6U4ZRev-i-64">
          <mxGeometry x="0.3129" y="-1" relative="1" as="geometry">
            <mxPoint x="25" as="offset" />
          </mxGeometry>
        </mxCell>
        <mxCell id="CjAh5pv60ER6U4ZRev-i-66" value="1.2. Cập nhật thông tin" style="ellipse;whiteSpace=wrap;html=1;" vertex="1" parent="t2YgciknhnE9-WvplmRK-1">
          <mxGeometry x="540" y="590" width="120" height="80" as="geometry" />
        </mxCell>
        <mxCell id="CjAh5pv60ER6U4ZRev-i-67" style="edgeStyle=orthogonalEdgeStyle;rounded=0;orthogonalLoop=1;jettySize=auto;html=1;exitX=0.75;exitY=1;exitDx=0;exitDy=0;entryX=1;entryY=0.75;entryDx=0;entryDy=0;" edge="1" parent="t2YgciknhnE9-WvplmRK-1" source="CjAh5pv60ER6U4ZRev-i-69" target="CjAh5pv60ER6U4ZRev-i-73">
          <mxGeometry relative="1" as="geometry" />
        </mxCell>
        <mxCell id="CjAh5pv60ER6U4ZRev-i-68" value="thông tin độc giả" style="edgeLabel;html=1;align=center;verticalAlign=middle;resizable=0;points=[];" vertex="1" connectable="0" parent="CjAh5pv60ER6U4ZRev-i-67">
          <mxGeometry x="0.1775" y="-1" relative="1" as="geometry">
            <mxPoint as="offset" />
          </mxGeometry>
        </mxCell>
        <mxCell id="CjAh5pv60ER6U4ZRev-i-69" value="Danh sách thành viên độc giả" style="shape=partialRectangle;whiteSpace=wrap;html=1;left=0;right=0;fillColor=none;" vertex="1" parent="t2YgciknhnE9-WvplmRK-1">
          <mxGeometry x="910" y="300" width="120" height="60" as="geometry" />
        </mxCell>
        <mxCell id="CjAh5pv60ER6U4ZRev-i-70" value="ĐỘC GIẢ" style="rounded=0;whiteSpace=wrap;html=1;" vertex="1" parent="t2YgciknhnE9-WvplmRK-1">
          <mxGeometry x="400" y="420" width="120" height="70" as="geometry" />
        </mxCell>
        <mxCell id="CjAh5pv60ER6U4ZRev-i-71" style="edgeStyle=orthogonalEdgeStyle;rounded=0;orthogonalLoop=1;jettySize=auto;html=1;exitX=1;exitY=0.5;exitDx=0;exitDy=0;entryX=0.25;entryY=1;entryDx=0;entryDy=0;" edge="1" parent="t2YgciknhnE9-WvplmRK-1" source="CjAh5pv60ER6U4ZRev-i-73" target="CjAh5pv60ER6U4ZRev-i-69">
          <mxGeometry relative="1" as="geometry">
            <Array as="points">
              <mxPoint x="940" y="455" />
            </Array>
          </mxGeometry>
        </mxCell>
        <mxCell id="CjAh5pv60ER6U4ZRev-i-72" value="tìm kiếm độc giả" style="edgeLabel;html=1;align=center;verticalAlign=middle;resizable=0;points=[];" vertex="1" connectable="0" parent="CjAh5pv60ER6U4ZRev-i-71">
          <mxGeometry x="0.4996" y="2" relative="1" as="geometry">
            <mxPoint as="offset" />
          </mxGeometry>
        </mxCell>
        <mxCell id="CjAh5pv60ER6U4ZRev-i-73" value="QUẢN LÝ" style="rounded=0;whiteSpace=wrap;html=1;" vertex="1" parent="t2YgciknhnE9-WvplmRK-1">
          <mxGeometry x="690" y="420" width="120" height="70" as="geometry" />
        </mxCell>
      </root>
    </mxGraphModel>
  </diagram>
  <diagram id="9SCA6XN6eqFPnreA4M3m" name="Page-3">
    <mxGraphModel dx="1273" dy="2897" grid="1" gridSize="10" guides="1" tooltips="1" connect="1" arrows="1" fold="1" page="1" pageScale="1" pageWidth="850" pageHeight="1100" math="0" shadow="0">
      <root>
        <mxCell id="fkpS90Z_O1uiq0ntsgVt-0" />
        <mxCell id="fkpS90Z_O1uiq0ntsgVt-1" parent="fkpS90Z_O1uiq0ntsgVt-0" />
        <mxCell id="fkpS90Z_O1uiq0ntsgVt-2" style="edgeStyle=orthogonalEdgeStyle;rounded=0;orthogonalLoop=1;jettySize=auto;html=1;exitX=1;exitY=0;exitDx=0;exitDy=0;entryX=0.75;entryY=0;entryDx=0;entryDy=0;" edge="1" parent="fkpS90Z_O1uiq0ntsgVt-1" source="fkpS90Z_O1uiq0ntsgVt-8" target="fkpS90Z_O1uiq0ntsgVt-24">
          <mxGeometry relative="1" as="geometry" />
        </mxCell>
        <mxCell id="fkpS90Z_O1uiq0ntsgVt-3" value="thẻ học sinh, sinh viên" style="edgeLabel;html=1;align=center;verticalAlign=middle;resizable=0;points=[];" vertex="1" connectable="0" parent="fkpS90Z_O1uiq0ntsgVt-2">
          <mxGeometry x="-0.1209" y="1" relative="1" as="geometry">
            <mxPoint x="4" y="-1" as="offset" />
          </mxGeometry>
        </mxCell>
        <mxCell id="fkpS90Z_O1uiq0ntsgVt-4" style="edgeStyle=orthogonalEdgeStyle;rounded=0;orthogonalLoop=1;jettySize=auto;html=1;exitX=1;exitY=1;exitDx=0;exitDy=0;entryX=0.5;entryY=0;entryDx=0;entryDy=0;" edge="1" parent="fkpS90Z_O1uiq0ntsgVt-1" source="fkpS90Z_O1uiq0ntsgVt-8" target="fkpS90Z_O1uiq0ntsgVt-24">
          <mxGeometry relative="1" as="geometry">
            <mxPoint x="600" y="-200" as="targetPoint" />
            <Array as="points">
              <mxPoint x="500" y="-252" />
            </Array>
          </mxGeometry>
        </mxCell>
        <mxCell id="fkpS90Z_O1uiq0ntsgVt-5" value="phiếu đăng ký" style="edgeLabel;html=1;align=center;verticalAlign=middle;resizable=0;points=[];" vertex="1" connectable="0" parent="fkpS90Z_O1uiq0ntsgVt-4">
          <mxGeometry x="-0.1575" y="2" relative="1" as="geometry">
            <mxPoint x="-4" y="4" as="offset" />
          </mxGeometry>
        </mxCell>
        <mxCell id="fkpS90Z_O1uiq0ntsgVt-6" style="edgeStyle=orthogonalEdgeStyle;rounded=0;orthogonalLoop=1;jettySize=auto;html=1;entryX=0.75;entryY=0;entryDx=0;entryDy=0;" edge="1" parent="fkpS90Z_O1uiq0ntsgVt-1" source="fkpS90Z_O1uiq0ntsgVt-8" target="fkpS90Z_O1uiq0ntsgVt-15">
          <mxGeometry relative="1" as="geometry">
            <Array as="points">
              <mxPoint x="280" y="-197" />
              <mxPoint x="140" y="-197" />
            </Array>
          </mxGeometry>
        </mxCell>
        <mxCell id="fkpS90Z_O1uiq0ntsgVt-7" value="thẻ độc giả" style="edgeLabel;html=1;align=center;verticalAlign=middle;resizable=0;points=[];" vertex="1" connectable="0" parent="fkpS90Z_O1uiq0ntsgVt-6">
          <mxGeometry x="0.3995" y="-1" relative="1" as="geometry">
            <mxPoint x="35" as="offset" />
          </mxGeometry>
        </mxCell>
        <mxCell id="fkpS90Z_O1uiq0ntsgVt-8" value="1.1.&amp;nbsp;&amp;nbsp;Đăng ký độc giả học sinh, sinh viên" style="ellipse;whiteSpace=wrap;html=1;" vertex="1" parent="fkpS90Z_O1uiq0ntsgVt-1">
          <mxGeometry x="250" y="-320" width="120" height="80" as="geometry" />
        </mxCell>
        <mxCell id="fkpS90Z_O1uiq0ntsgVt-9" style="edgeStyle=orthogonalEdgeStyle;rounded=0;orthogonalLoop=1;jettySize=auto;html=1;exitX=0.25;exitY=0;exitDx=0;exitDy=0;entryX=0;entryY=0;entryDx=0;entryDy=0;" edge="1" parent="fkpS90Z_O1uiq0ntsgVt-1" source="fkpS90Z_O1uiq0ntsgVt-15" target="fkpS90Z_O1uiq0ntsgVt-8">
          <mxGeometry relative="1" as="geometry">
            <Array as="points">
              <mxPoint x="80" y="-308" />
            </Array>
          </mxGeometry>
        </mxCell>
        <mxCell id="fkpS90Z_O1uiq0ntsgVt-10" value="thẻ học sinh, sinh viên" style="edgeLabel;html=1;align=center;verticalAlign=middle;resizable=0;points=[];" vertex="1" connectable="0" parent="fkpS90Z_O1uiq0ntsgVt-9">
          <mxGeometry x="0.1346" y="-2" relative="1" as="geometry">
            <mxPoint x="18" y="-4" as="offset" />
          </mxGeometry>
        </mxCell>
        <mxCell id="fkpS90Z_O1uiq0ntsgVt-11" style="edgeStyle=orthogonalEdgeStyle;rounded=0;orthogonalLoop=1;jettySize=auto;html=1;exitX=0.25;exitY=1;exitDx=0;exitDy=0;entryX=0;entryY=1;entryDx=0;entryDy=0;" edge="1" parent="fkpS90Z_O1uiq0ntsgVt-1" source="fkpS90Z_O1uiq0ntsgVt-15" target="fkpS90Z_O1uiq0ntsgVt-31">
          <mxGeometry relative="1" as="geometry">
            <Array as="points">
              <mxPoint x="80" y="88" />
            </Array>
          </mxGeometry>
        </mxCell>
        <mxCell id="fkpS90Z_O1uiq0ntsgVt-12" value="chứng minh thư" style="edgeLabel;html=1;align=center;verticalAlign=middle;resizable=0;points=[];" vertex="1" connectable="0" parent="fkpS90Z_O1uiq0ntsgVt-11">
          <mxGeometry x="-0.1071" y="-1" relative="1" as="geometry">
            <mxPoint x="1" y="18" as="offset" />
          </mxGeometry>
        </mxCell>
        <mxCell id="fkpS90Z_O1uiq0ntsgVt-13" style="edgeStyle=orthogonalEdgeStyle;rounded=0;orthogonalLoop=1;jettySize=auto;html=1;exitX=0.5;exitY=0;exitDx=0;exitDy=0;entryX=0;entryY=1;entryDx=0;entryDy=0;" edge="1" parent="fkpS90Z_O1uiq0ntsgVt-1" source="fkpS90Z_O1uiq0ntsgVt-15" target="fkpS90Z_O1uiq0ntsgVt-8">
          <mxGeometry relative="1" as="geometry">
            <Array as="points">
              <mxPoint x="110" y="-252" />
            </Array>
          </mxGeometry>
        </mxCell>
        <mxCell id="fkpS90Z_O1uiq0ntsgVt-14" value="phiếu đăng ký" style="edgeLabel;html=1;align=center;verticalAlign=middle;resizable=0;points=[];" vertex="1" connectable="0" parent="fkpS90Z_O1uiq0ntsgVt-13">
          <mxGeometry x="-0.1659" y="2" relative="1" as="geometry">
            <mxPoint x="12" y="-15" as="offset" />
          </mxGeometry>
        </mxCell>
        <mxCell id="fkpS90Z_O1uiq0ntsgVt-15" value="Độc giả" style="shape=ext;double=1;rounded=0;whiteSpace=wrap;html=1;" vertex="1" parent="fkpS90Z_O1uiq0ntsgVt-1">
          <mxGeometry x="50" y="-150" width="120" height="70" as="geometry" />
        </mxCell>
        <mxCell id="fkpS90Z_O1uiq0ntsgVt-16" style="edgeStyle=orthogonalEdgeStyle;rounded=0;orthogonalLoop=1;jettySize=auto;html=1;exitX=0.5;exitY=1;exitDx=0;exitDy=0;entryX=1;entryY=0;entryDx=0;entryDy=0;" edge="1" parent="fkpS90Z_O1uiq0ntsgVt-1" source="fkpS90Z_O1uiq0ntsgVt-24" target="fkpS90Z_O1uiq0ntsgVt-31">
          <mxGeometry relative="1" as="geometry">
            <Array as="points">
              <mxPoint x="500" y="32" />
            </Array>
          </mxGeometry>
        </mxCell>
        <mxCell id="fkpS90Z_O1uiq0ntsgVt-17" value="phiếu đăng ký" style="edgeLabel;html=1;align=center;verticalAlign=middle;resizable=0;points=[];" vertex="1" connectable="0" parent="fkpS90Z_O1uiq0ntsgVt-16">
          <mxGeometry x="0.1088" y="-1" relative="1" as="geometry">
            <mxPoint x="-5" as="offset" />
          </mxGeometry>
        </mxCell>
        <mxCell id="fkpS90Z_O1uiq0ntsgVt-18" style="edgeStyle=orthogonalEdgeStyle;rounded=0;orthogonalLoop=1;jettySize=auto;html=1;exitX=0.25;exitY=1;exitDx=0;exitDy=0;entryX=0.703;entryY=0.053;entryDx=0;entryDy=0;entryPerimeter=0;" edge="1" parent="fkpS90Z_O1uiq0ntsgVt-1" source="fkpS90Z_O1uiq0ntsgVt-24" target="fkpS90Z_O1uiq0ntsgVt-31">
          <mxGeometry relative="1" as="geometry" />
        </mxCell>
        <mxCell id="fkpS90Z_O1uiq0ntsgVt-19" value="thẻ độc giả" style="edgeLabel;html=1;align=center;verticalAlign=middle;resizable=0;points=[];" vertex="1" connectable="0" parent="fkpS90Z_O1uiq0ntsgVt-18">
          <mxGeometry x="0.17" y="-1" relative="1" as="geometry">
            <mxPoint x="7" as="offset" />
          </mxGeometry>
        </mxCell>
        <mxCell id="fkpS90Z_O1uiq0ntsgVt-20" style="edgeStyle=orthogonalEdgeStyle;rounded=0;orthogonalLoop=1;jettySize=auto;html=1;exitX=0.25;exitY=0;exitDx=0;exitDy=0;entryX=0.71;entryY=0.972;entryDx=0;entryDy=0;entryPerimeter=0;" edge="1" parent="fkpS90Z_O1uiq0ntsgVt-1" source="fkpS90Z_O1uiq0ntsgVt-24" target="fkpS90Z_O1uiq0ntsgVt-8">
          <mxGeometry relative="1" as="geometry" />
        </mxCell>
        <mxCell id="fkpS90Z_O1uiq0ntsgVt-21" value="thẻ độc giả" style="edgeLabel;html=1;align=center;verticalAlign=middle;resizable=0;points=[];" vertex="1" connectable="0" parent="fkpS90Z_O1uiq0ntsgVt-20">
          <mxGeometry x="0.2708" y="-1" relative="1" as="geometry">
            <mxPoint x="14" as="offset" />
          </mxGeometry>
        </mxCell>
        <mxCell id="fkpS90Z_O1uiq0ntsgVt-22" style="edgeStyle=orthogonalEdgeStyle;rounded=0;orthogonalLoop=1;jettySize=auto;html=1;exitX=0;exitY=0.5;exitDx=0;exitDy=0;entryX=0;entryY=0.5;entryDx=0;entryDy=0;" edge="1" parent="fkpS90Z_O1uiq0ntsgVt-1" source="fkpS90Z_O1uiq0ntsgVt-38" target="fkpS90Z_O1uiq0ntsgVt-34">
          <mxGeometry relative="1" as="geometry">
            <Array as="points">
              <mxPoint x="402" y="-115" />
              <mxPoint x="402" y="-150" />
              <mxPoint x="225" y="-150" />
              <mxPoint x="225" y="-90" />
            </Array>
          </mxGeometry>
        </mxCell>
        <mxCell id="fkpS90Z_O1uiq0ntsgVt-23" value="nhập thông tin" style="edgeLabel;html=1;align=center;verticalAlign=middle;resizable=0;points=[];" vertex="1" connectable="0" parent="fkpS90Z_O1uiq0ntsgVt-22">
          <mxGeometry x="-0.2426" y="2" relative="1" as="geometry">
            <mxPoint x="-42" as="offset" />
          </mxGeometry>
        </mxCell>
        <mxCell id="fkpS90Z_O1uiq0ntsgVt-24" value="Quản lý" style="shape=ext;double=1;rounded=0;whiteSpace=wrap;html=1;" vertex="1" parent="fkpS90Z_O1uiq0ntsgVt-1">
          <mxGeometry x="440" y="-150" width="120" height="70" as="geometry" />
        </mxCell>
        <mxCell id="fkpS90Z_O1uiq0ntsgVt-25" style="edgeStyle=orthogonalEdgeStyle;rounded=0;orthogonalLoop=1;jettySize=auto;html=1;exitX=1;exitY=1;exitDx=0;exitDy=0;entryX=0.75;entryY=1;entryDx=0;entryDy=0;" edge="1" parent="fkpS90Z_O1uiq0ntsgVt-1" source="fkpS90Z_O1uiq0ntsgVt-31" target="fkpS90Z_O1uiq0ntsgVt-24">
          <mxGeometry relative="1" as="geometry" />
        </mxCell>
        <mxCell id="fkpS90Z_O1uiq0ntsgVt-26" value="chứng minh thư" style="edgeLabel;html=1;align=center;verticalAlign=middle;resizable=0;points=[];" vertex="1" connectable="0" parent="fkpS90Z_O1uiq0ntsgVt-25">
          <mxGeometry x="0.1006" y="-1" relative="1" as="geometry">
            <mxPoint x="-1" y="8" as="offset" />
          </mxGeometry>
        </mxCell>
        <mxCell id="fkpS90Z_O1uiq0ntsgVt-27" style="edgeStyle=orthogonalEdgeStyle;rounded=0;orthogonalLoop=1;jettySize=auto;html=1;exitX=0;exitY=0;exitDx=0;exitDy=0;entryX=0.5;entryY=1;entryDx=0;entryDy=0;" edge="1" parent="fkpS90Z_O1uiq0ntsgVt-1" source="fkpS90Z_O1uiq0ntsgVt-31" target="fkpS90Z_O1uiq0ntsgVt-15">
          <mxGeometry relative="1" as="geometry">
            <Array as="points">
              <mxPoint x="110" y="32" />
            </Array>
          </mxGeometry>
        </mxCell>
        <mxCell id="fkpS90Z_O1uiq0ntsgVt-28" value="phiếu đăng ký" style="edgeLabel;html=1;align=center;verticalAlign=middle;resizable=0;points=[];" vertex="1" connectable="0" parent="fkpS90Z_O1uiq0ntsgVt-27">
          <mxGeometry x="0.1667" y="-2" relative="1" as="geometry">
            <mxPoint x="8" y="23" as="offset" />
          </mxGeometry>
        </mxCell>
        <mxCell id="fkpS90Z_O1uiq0ntsgVt-29" style="edgeStyle=orthogonalEdgeStyle;rounded=0;orthogonalLoop=1;jettySize=auto;html=1;entryX=0.75;entryY=1;entryDx=0;entryDy=0;" edge="1" parent="fkpS90Z_O1uiq0ntsgVt-1" source="fkpS90Z_O1uiq0ntsgVt-31" target="fkpS90Z_O1uiq0ntsgVt-15">
          <mxGeometry relative="1" as="geometry">
            <Array as="points">
              <mxPoint x="280" y="-32" />
              <mxPoint x="140" y="-32" />
            </Array>
          </mxGeometry>
        </mxCell>
        <mxCell id="fkpS90Z_O1uiq0ntsgVt-30" value="thẻ độc giả" style="edgeLabel;html=1;align=center;verticalAlign=middle;resizable=0;points=[];" vertex="1" connectable="0" parent="fkpS90Z_O1uiq0ntsgVt-29">
          <mxGeometry x="0.3129" y="-1" relative="1" as="geometry">
            <mxPoint x="25" as="offset" />
          </mxGeometry>
        </mxCell>
        <mxCell id="fkpS90Z_O1uiq0ntsgVt-31" value="1.2.Đăng ký độc giả thường" style="ellipse;whiteSpace=wrap;html=1;" vertex="1" parent="fkpS90Z_O1uiq0ntsgVt-1">
          <mxGeometry x="250" y="20" width="120" height="80" as="geometry" />
        </mxCell>
        <mxCell id="fkpS90Z_O1uiq0ntsgVt-34" value="Danh sách thành viên độc giả" style="shape=partialRectangle;whiteSpace=wrap;html=1;left=0;right=0;fillColor=none;" vertex="1" parent="fkpS90Z_O1uiq0ntsgVt-1">
          <mxGeometry x="245" y="-120" width="120" height="60" as="geometry" />
        </mxCell>
        <mxCell id="fkpS90Z_O1uiq0ntsgVt-38" value="QUẢN LÝ" style="rounded=0;whiteSpace=wrap;html=1;" vertex="1" parent="fkpS90Z_O1uiq0ntsgVt-1">
          <mxGeometry x="440" y="-150" width="120" height="70" as="geometry" />
        </mxCell>
        <mxCell id="fkpS90Z_O1uiq0ntsgVt-39" value="Quản lý độc giả" style="ellipse;whiteSpace=wrap;html=1;" vertex="1" parent="fkpS90Z_O1uiq0ntsgVt-1">
          <mxGeometry x="390" y="-1110" width="120" height="80" as="geometry" />
        </mxCell>
        <mxCell id="fkpS90Z_O1uiq0ntsgVt-40" value="" style="endArrow=classic;html=1;rounded=0;exitX=1;exitY=0.5;exitDx=0;exitDy=0;entryX=0;entryY=0.5;entryDx=0;entryDy=0;" edge="1" parent="fkpS90Z_O1uiq0ntsgVt-1" source="fkpS90Z_O1uiq0ntsgVt-46" target="fkpS90Z_O1uiq0ntsgVt-39">
          <mxGeometry relative="1" as="geometry">
            <mxPoint x="220" y="-1070" as="sourcePoint" />
            <mxPoint x="380" y="-1070" as="targetPoint" />
          </mxGeometry>
        </mxCell>
        <mxCell id="fkpS90Z_O1uiq0ntsgVt-41" value="Phiếu đăng ký" style="edgeLabel;resizable=0;html=1;align=center;verticalAlign=middle;" connectable="0" vertex="1" parent="fkpS90Z_O1uiq0ntsgVt-40">
          <mxGeometry relative="1" as="geometry" />
        </mxCell>
        <mxCell id="fkpS90Z_O1uiq0ntsgVt-42" value="" style="endArrow=classic;html=1;rounded=0;exitX=1;exitY=0.5;exitDx=0;exitDy=0;entryX=0;entryY=0.5;entryDx=0;entryDy=0;" edge="1" parent="fkpS90Z_O1uiq0ntsgVt-1" source="fkpS90Z_O1uiq0ntsgVt-39" target="fkpS90Z_O1uiq0ntsgVt-47">
          <mxGeometry relative="1" as="geometry">
            <mxPoint x="420" y="-1000" as="sourcePoint" />
            <mxPoint x="630" y="-1070" as="targetPoint" />
          </mxGeometry>
        </mxCell>
        <mxCell id="fkpS90Z_O1uiq0ntsgVt-43" value="Phiếu đăng ký" style="edgeLabel;resizable=0;html=1;align=center;verticalAlign=middle;" connectable="0" vertex="1" parent="fkpS90Z_O1uiq0ntsgVt-42">
          <mxGeometry relative="1" as="geometry" />
        </mxCell>
        <mxCell id="fkpS90Z_O1uiq0ntsgVt-44" value="" style="endArrow=classic;html=1;rounded=0;exitX=0.5;exitY=1;exitDx=0;exitDy=0;entryX=0.5;entryY=1;entryDx=0;entryDy=0;" edge="1" parent="fkpS90Z_O1uiq0ntsgVt-1" source="fkpS90Z_O1uiq0ntsgVt-39" target="fkpS90Z_O1uiq0ntsgVt-46">
          <mxGeometry relative="1" as="geometry">
            <mxPoint x="500" y="-970" as="sourcePoint" />
            <mxPoint x="160" y="-1040" as="targetPoint" />
            <Array as="points">
              <mxPoint x="450" y="-980" />
              <mxPoint x="160" y="-980" />
              <mxPoint x="160" y="-1000" />
            </Array>
          </mxGeometry>
        </mxCell>
        <mxCell id="fkpS90Z_O1uiq0ntsgVt-45" value="Thẻ độc giả" style="edgeLabel;resizable=0;html=1;align=center;verticalAlign=middle;" connectable="0" vertex="1" parent="fkpS90Z_O1uiq0ntsgVt-44">
          <mxGeometry relative="1" as="geometry" />
        </mxCell>
        <mxCell id="fkpS90Z_O1uiq0ntsgVt-46" value="Độc giả" style="shape=ext;double=1;rounded=0;whiteSpace=wrap;html=1;" vertex="1" parent="fkpS90Z_O1uiq0ntsgVt-1">
          <mxGeometry x="100" y="-1105" width="120" height="70" as="geometry" />
        </mxCell>
        <mxCell id="fkpS90Z_O1uiq0ntsgVt-47" value="Quản lý" style="shape=ext;double=1;rounded=0;whiteSpace=wrap;html=1;" vertex="1" parent="fkpS90Z_O1uiq0ntsgVt-1">
          <mxGeometry x="630" y="-1105" width="120" height="70" as="geometry" />
        </mxCell>
        <mxCell id="fkpS90Z_O1uiq0ntsgVt-48" value="" style="endArrow=classic;html=1;rounded=0;exitX=0.5;exitY=0;exitDx=0;exitDy=0;entryX=0.5;entryY=0;entryDx=0;entryDy=0;" edge="1" parent="fkpS90Z_O1uiq0ntsgVt-1" source="fkpS90Z_O1uiq0ntsgVt-46" target="fkpS90Z_O1uiq0ntsgVt-39">
          <mxGeometry relative="1" as="geometry">
            <mxPoint x="430" y="-1235" as="sourcePoint" />
            <mxPoint x="140" y="-1240" as="targetPoint" />
            <Array as="points">
              <mxPoint x="160" y="-1160" />
              <mxPoint x="450" y="-1160" />
            </Array>
          </mxGeometry>
        </mxCell>
        <mxCell id="fkpS90Z_O1uiq0ntsgVt-49" value="Phiếu sửa đổi thông tin" style="edgeLabel;resizable=0;html=1;align=center;verticalAlign=middle;" connectable="0" vertex="1" parent="fkpS90Z_O1uiq0ntsgVt-48">
          <mxGeometry relative="1" as="geometry" />
        </mxCell>
        <mxCell id="fkpS90Z_O1uiq0ntsgVt-50" value="" style="endArrow=classic;html=1;rounded=0;entryX=0.5;entryY=0;entryDx=0;entryDy=0;" edge="1" parent="fkpS90Z_O1uiq0ntsgVt-1" target="fkpS90Z_O1uiq0ntsgVt-47">
          <mxGeometry relative="1" as="geometry">
            <mxPoint x="490" y="-1100" as="sourcePoint" />
            <mxPoint x="835" y="-1160" as="targetPoint" />
            <Array as="points">
              <mxPoint x="490" y="-1160" />
              <mxPoint x="690" y="-1160" />
            </Array>
          </mxGeometry>
        </mxCell>
        <mxCell id="fkpS90Z_O1uiq0ntsgVt-51" value="Phiếu sửa đổi thông tin" style="edgeLabel;resizable=0;html=1;align=center;verticalAlign=middle;" connectable="0" vertex="1" parent="fkpS90Z_O1uiq0ntsgVt-50">
          <mxGeometry relative="1" as="geometry" />
        </mxCell>
        <mxCell id="fkpS90Z_O1uiq0ntsgVt-52" value="Quản lý" style="shape=ext;double=1;rounded=0;whiteSpace=wrap;html=1;" vertex="1" parent="fkpS90Z_O1uiq0ntsgVt-1">
          <mxGeometry x="630" y="-1105" width="120" height="70" as="geometry" />
        </mxCell>
        <mxCell id="fkpS90Z_O1uiq0ntsgVt-53" value="ĐỘC GIẢ" style="rounded=0;whiteSpace=wrap;html=1;" vertex="1" parent="fkpS90Z_O1uiq0ntsgVt-1">
          <mxGeometry x="100" y="-1105" width="120" height="70" as="geometry" />
        </mxCell>
        <mxCell id="fkpS90Z_O1uiq0ntsgVt-54" value="QUẢN LÝ" style="rounded=0;whiteSpace=wrap;html=1;" vertex="1" parent="fkpS90Z_O1uiq0ntsgVt-1">
          <mxGeometry x="630" y="-1105" width="120" height="70" as="geometry" />
        </mxCell>
        <mxCell id="fkpS90Z_O1uiq0ntsgVt-56" style="edgeStyle=orthogonalEdgeStyle;rounded=0;orthogonalLoop=1;jettySize=auto;html=1;exitX=1;exitY=0.75;exitDx=0;exitDy=0;entryX=0;entryY=1;entryDx=0;entryDy=0;" edge="1" parent="fkpS90Z_O1uiq0ntsgVt-1" source="fkpS90Z_O1uiq0ntsgVt-95" target="fkpS90Z_O1uiq0ntsgVt-81">
          <mxGeometry relative="1" as="geometry">
            <Array as="points">
              <mxPoint x="220" y="-477" />
            </Array>
          </mxGeometry>
        </mxCell>
        <mxCell id="fkpS90Z_O1uiq0ntsgVt-57" value="thẻ độc giả" style="edgeLabel;html=1;align=center;verticalAlign=middle;resizable=0;points=[];" vertex="1" connectable="0" parent="fkpS90Z_O1uiq0ntsgVt-56">
          <mxGeometry x="0.1799" y="1" relative="1" as="geometry">
            <mxPoint as="offset" />
          </mxGeometry>
        </mxCell>
        <mxCell id="fkpS90Z_O1uiq0ntsgVt-58" style="edgeStyle=orthogonalEdgeStyle;rounded=0;orthogonalLoop=1;jettySize=auto;html=1;exitX=1;exitY=0;exitDx=0;exitDy=0;entryX=0.5;entryY=1;entryDx=0;entryDy=0;" edge="1" parent="fkpS90Z_O1uiq0ntsgVt-1" source="fkpS90Z_O1uiq0ntsgVt-95" target="fkpS90Z_O1uiq0ntsgVt-78">
          <mxGeometry relative="1" as="geometry">
            <Array as="points">
              <mxPoint x="220" y="-575" />
              <mxPoint x="255" y="-575" />
              <mxPoint x="255" y="-745" />
              <mxPoint x="235" y="-745" />
            </Array>
          </mxGeometry>
        </mxCell>
        <mxCell id="fkpS90Z_O1uiq0ntsgVt-59" value="phiếu đăng ký" style="edgeLabel;html=1;align=center;verticalAlign=middle;resizable=0;points=[];" vertex="1" connectable="0" parent="fkpS90Z_O1uiq0ntsgVt-58">
          <mxGeometry x="0.4198" y="-1" relative="1" as="geometry">
            <mxPoint x="-1" y="101" as="offset" />
          </mxGeometry>
        </mxCell>
        <mxCell id="fkpS90Z_O1uiq0ntsgVt-60" value="Độc giả" style="shape=ext;double=1;rounded=0;whiteSpace=wrap;html=1;" vertex="1" parent="fkpS90Z_O1uiq0ntsgVt-1">
          <mxGeometry x="100" y="-535" width="120" height="70" as="geometry" />
        </mxCell>
        <mxCell id="fkpS90Z_O1uiq0ntsgVt-61" style="edgeStyle=orthogonalEdgeStyle;rounded=0;orthogonalLoop=1;jettySize=auto;html=1;exitX=0.921;exitY=0.803;exitDx=0;exitDy=0;entryX=1;entryY=0.75;entryDx=0;entryDy=0;exitPerimeter=0;" edge="1" parent="fkpS90Z_O1uiq0ntsgVt-1" target="fkpS90Z_O1uiq0ntsgVt-89">
          <mxGeometry relative="1" as="geometry">
            <mxPoint x="504.99999999999994" y="-480.7600000000002" as="sourcePoint" />
            <mxPoint x="684.48" y="-450" as="targetPoint" />
            <Array as="points">
              <mxPoint x="525" y="-481" />
              <mxPoint x="525" y="-445" />
              <mxPoint x="705" y="-445" />
              <mxPoint x="705" y="-500" />
            </Array>
          </mxGeometry>
        </mxCell>
        <mxCell id="fkpS90Z_O1uiq0ntsgVt-62" value="tìm kiếm thông tin độc giả" style="edgeLabel;html=1;align=center;verticalAlign=middle;resizable=0;points=[];" vertex="1" connectable="0" parent="fkpS90Z_O1uiq0ntsgVt-61">
          <mxGeometry x="-0.44" relative="1" as="geometry">
            <mxPoint x="86" as="offset" />
          </mxGeometry>
        </mxCell>
        <mxCell id="fkpS90Z_O1uiq0ntsgVt-63" style="edgeStyle=orthogonalEdgeStyle;rounded=0;orthogonalLoop=1;jettySize=auto;html=1;exitX=0.25;exitY=0;exitDx=0;exitDy=0;entryX=1;entryY=0.5;entryDx=0;entryDy=0;" edge="1" parent="fkpS90Z_O1uiq0ntsgVt-1" source="fkpS90Z_O1uiq0ntsgVt-92" target="fkpS90Z_O1uiq0ntsgVt-78">
          <mxGeometry relative="1" as="geometry">
            <Array as="points">
              <mxPoint x="460" y="-840" />
            </Array>
          </mxGeometry>
        </mxCell>
        <mxCell id="fkpS90Z_O1uiq0ntsgVt-64" value="phiếu đăng ký" style="edgeLabel;html=1;align=center;verticalAlign=middle;resizable=0;points=[];" vertex="1" connectable="0" parent="fkpS90Z_O1uiq0ntsgVt-63">
          <mxGeometry x="-0.5556" y="-1" relative="1" as="geometry">
            <mxPoint x="-100" y="1" as="offset" />
          </mxGeometry>
        </mxCell>
        <mxCell id="fkpS90Z_O1uiq0ntsgVt-65" value="chỉnh sửa, gia hạn,&lt;br&gt;huỷ độc giả" style="edgeStyle=orthogonalEdgeStyle;rounded=0;orthogonalLoop=1;jettySize=auto;html=1;exitX=1;exitY=0.5;exitDx=0;exitDy=0;entryX=1;entryY=0.5;entryDx=0;entryDy=0;" edge="1" parent="fkpS90Z_O1uiq0ntsgVt-1" target="fkpS90Z_O1uiq0ntsgVt-81">
          <mxGeometry x="0.3604" relative="1" as="geometry">
            <mxPoint x="497.4264068711959" y="-535.0042712474644" as="targetPoint" />
            <Array as="points">
              <mxPoint x="605" y="-767" />
              <mxPoint x="605" y="-580" />
              <mxPoint x="530" y="-580" />
              <mxPoint x="530" y="-505" />
            </Array>
            <mxPoint x="550" y="-766.72" as="sourcePoint" />
            <mxPoint as="offset" />
          </mxGeometry>
        </mxCell>
        <mxCell id="fkpS90Z_O1uiq0ntsgVt-67" style="edgeStyle=orthogonalEdgeStyle;rounded=0;orthogonalLoop=1;jettySize=auto;html=1;exitX=1;exitY=0.25;exitDx=0;exitDy=0;entryX=0.75;entryY=0;entryDx=0;entryDy=0;" edge="1" parent="fkpS90Z_O1uiq0ntsgVt-1" source="fkpS90Z_O1uiq0ntsgVt-92" target="fkpS90Z_O1uiq0ntsgVt-89">
          <mxGeometry relative="1" as="geometry">
            <Array as="points">
              <mxPoint x="655" y="-783" />
            </Array>
          </mxGeometry>
        </mxCell>
        <mxCell id="fkpS90Z_O1uiq0ntsgVt-68" value="nhập thông tin" style="edgeLabel;html=1;align=center;verticalAlign=middle;resizable=0;points=[];" vertex="1" connectable="0" parent="fkpS90Z_O1uiq0ntsgVt-67">
          <mxGeometry x="-0.0457" relative="1" as="geometry">
            <mxPoint y="41" as="offset" />
          </mxGeometry>
        </mxCell>
        <mxCell id="fkpS90Z_O1uiq0ntsgVt-69" value="Quản lý" style="shape=ext;double=1;rounded=0;whiteSpace=wrap;html=1;allowArrows=1;" vertex="1" parent="fkpS90Z_O1uiq0ntsgVt-1">
          <mxGeometry x="430" y="-800" width="120" height="70" as="geometry" />
        </mxCell>
        <mxCell id="fkpS90Z_O1uiq0ntsgVt-70" style="edgeStyle=orthogonalEdgeStyle;rounded=0;orthogonalLoop=1;jettySize=auto;html=1;exitX=1;exitY=1;exitDx=0;exitDy=0;entryX=0;entryY=0.75;entryDx=0;entryDy=0;" edge="1" parent="fkpS90Z_O1uiq0ntsgVt-1" source="fkpS90Z_O1uiq0ntsgVt-78" target="fkpS90Z_O1uiq0ntsgVt-92">
          <mxGeometry relative="1" as="geometry">
            <mxPoint x="430" y="-780" as="targetPoint" />
            <Array as="points">
              <mxPoint x="277" y="-795" />
              <mxPoint x="375" y="-795" />
              <mxPoint x="375" y="-747" />
              <mxPoint x="430" y="-747" />
            </Array>
          </mxGeometry>
        </mxCell>
        <mxCell id="fkpS90Z_O1uiq0ntsgVt-71" value="CCCD,&lt;br&gt;thẻ sv" style="edgeLabel;html=1;align=center;verticalAlign=middle;resizable=0;points=[];" vertex="1" connectable="0" parent="fkpS90Z_O1uiq0ntsgVt-70">
          <mxGeometry x="-0.2566" y="2" relative="1" as="geometry">
            <mxPoint x="33" y="12" as="offset" />
          </mxGeometry>
        </mxCell>
        <mxCell id="fkpS90Z_O1uiq0ntsgVt-74" value="" style="edgeStyle=orthogonalEdgeStyle;rounded=0;orthogonalLoop=1;jettySize=auto;html=1;exitX=0.228;exitY=0.962;exitDx=0;exitDy=0;exitPerimeter=0;entryX=0.853;entryY=0.005;entryDx=0;entryDy=0;entryPerimeter=0;" edge="1" parent="fkpS90Z_O1uiq0ntsgVt-1" source="fkpS90Z_O1uiq0ntsgVt-78" target="fkpS90Z_O1uiq0ntsgVt-95">
          <mxGeometry x="-0.269" relative="1" as="geometry">
            <mxPoint x="235" y="-595" as="targetPoint" />
            <Array as="points">
              <mxPoint x="202" y="-705" />
              <mxPoint x="202" y="-705" />
            </Array>
            <mxPoint as="offset" />
          </mxGeometry>
        </mxCell>
        <mxCell id="fkpS90Z_O1uiq0ntsgVt-124" value="phiếu đăng ký" style="edgeLabel;html=1;align=center;verticalAlign=middle;resizable=0;points=[];" vertex="1" connectable="0" parent="fkpS90Z_O1uiq0ntsgVt-74">
          <mxGeometry x="-0.1624" relative="1" as="geometry">
            <mxPoint as="offset" />
          </mxGeometry>
        </mxCell>
        <mxCell id="fkpS90Z_O1uiq0ntsgVt-76" style="edgeStyle=orthogonalEdgeStyle;rounded=0;orthogonalLoop=1;jettySize=auto;html=1;exitX=1;exitY=0;exitDx=0;exitDy=0;entryX=0.5;entryY=0;entryDx=0;entryDy=0;" edge="1" parent="fkpS90Z_O1uiq0ntsgVt-1" source="fkpS90Z_O1uiq0ntsgVt-78" target="fkpS90Z_O1uiq0ntsgVt-92">
          <mxGeometry relative="1" as="geometry" />
        </mxCell>
        <mxCell id="fkpS90Z_O1uiq0ntsgVt-77" value="phiếu đăng ký" style="edgeLabel;html=1;align=center;verticalAlign=middle;resizable=0;points=[];" vertex="1" connectable="0" parent="fkpS90Z_O1uiq0ntsgVt-76">
          <mxGeometry x="0.0339" y="-2" relative="1" as="geometry">
            <mxPoint x="22" as="offset" />
          </mxGeometry>
        </mxCell>
        <mxCell id="fkpS90Z_O1uiq0ntsgVt-78" value="1.0 Đăng ký độc giả" style="ellipse;whiteSpace=wrap;html=1;" vertex="1" parent="fkpS90Z_O1uiq0ntsgVt-1">
          <mxGeometry x="175" y="-880" width="120" height="80" as="geometry" />
        </mxCell>
        <mxCell id="fkpS90Z_O1uiq0ntsgVt-79" value="phiếu sửa đổi" style="edgeStyle=orthogonalEdgeStyle;rounded=0;orthogonalLoop=1;jettySize=auto;html=1;exitX=0;exitY=0.5;exitDx=0;exitDy=0;entryX=1;entryY=0.5;entryDx=0;entryDy=0;" edge="1" parent="fkpS90Z_O1uiq0ntsgVt-1" source="fkpS90Z_O1uiq0ntsgVt-81" target="fkpS90Z_O1uiq0ntsgVt-95">
          <mxGeometry relative="1" as="geometry">
            <mxPoint x="455" y="-600" as="sourcePoint" />
            <mxPoint x="260" y="-505" as="targetPoint" />
            <Array as="points">
              <mxPoint x="395" y="-500" />
            </Array>
          </mxGeometry>
        </mxCell>
        <mxCell id="fkpS90Z_O1uiq0ntsgVt-119" style="edgeStyle=orthogonalEdgeStyle;rounded=0;orthogonalLoop=1;jettySize=auto;html=1;exitX=0.737;exitY=0.042;exitDx=0;exitDy=0;exitPerimeter=0;" edge="1" parent="fkpS90Z_O1uiq0ntsgVt-1" source="fkpS90Z_O1uiq0ntsgVt-81">
          <mxGeometry relative="1" as="geometry">
            <mxPoint x="535" y="-730" as="targetPoint" />
            <Array as="points">
              <mxPoint x="483" y="-620" />
              <mxPoint x="535" y="-620" />
            </Array>
          </mxGeometry>
        </mxCell>
        <mxCell id="fkpS90Z_O1uiq0ntsgVt-120" value="thẻ độc giả" style="edgeLabel;html=1;align=center;verticalAlign=middle;resizable=0;points=[];" vertex="1" connectable="0" parent="fkpS90Z_O1uiq0ntsgVt-119">
          <mxGeometry x="-0.2449" y="-2" relative="1" as="geometry">
            <mxPoint x="35" y="-8" as="offset" />
          </mxGeometry>
        </mxCell>
        <mxCell id="fkpS90Z_O1uiq0ntsgVt-81" value="2.0. Quản lý thông tin" style="ellipse;whiteSpace=wrap;html=1;" vertex="1" parent="fkpS90Z_O1uiq0ntsgVt-1">
          <mxGeometry x="395" y="-545" width="120" height="80" as="geometry" />
        </mxCell>
        <mxCell id="fkpS90Z_O1uiq0ntsgVt-87" style="edgeStyle=orthogonalEdgeStyle;rounded=0;orthogonalLoop=1;jettySize=auto;html=1;exitX=1;exitY=0.25;exitDx=0;exitDy=0;" edge="1" parent="fkpS90Z_O1uiq0ntsgVt-1" source="fkpS90Z_O1uiq0ntsgVt-89" target="fkpS90Z_O1uiq0ntsgVt-81">
          <mxGeometry relative="1" as="geometry">
            <mxPoint x="715" y="-475" as="sourcePoint" />
            <mxPoint x="565" y="-810.05" as="targetPoint" />
            <Array as="points">
              <mxPoint x="745" y="-530" />
              <mxPoint x="745" y="-405" />
              <mxPoint x="478" y="-405" />
            </Array>
          </mxGeometry>
        </mxCell>
        <mxCell id="fkpS90Z_O1uiq0ntsgVt-88" value="Thông tin độc giả" style="edgeLabel;html=1;align=center;verticalAlign=middle;resizable=0;points=[];" vertex="1" connectable="0" parent="fkpS90Z_O1uiq0ntsgVt-87">
          <mxGeometry x="-0.2136" y="1" relative="1" as="geometry">
            <mxPoint x="-29" as="offset" />
          </mxGeometry>
        </mxCell>
        <mxCell id="fkpS90Z_O1uiq0ntsgVt-89" value="Danh sách thành viên độc giả" style="shape=partialRectangle;whiteSpace=wrap;html=1;left=0;right=0;fillColor=none;" vertex="1" parent="fkpS90Z_O1uiq0ntsgVt-1">
          <mxGeometry x="565" y="-545" width="120" height="60" as="geometry" />
        </mxCell>
        <mxCell id="fkpS90Z_O1uiq0ntsgVt-147" value="phiếu sửa đổi" style="edgeStyle=orthogonalEdgeStyle;rounded=0;orthogonalLoop=1;jettySize=auto;html=1;exitX=0.5;exitY=1;exitDx=0;exitDy=0;entryX=0.5;entryY=0;entryDx=0;entryDy=0;" edge="1" parent="fkpS90Z_O1uiq0ntsgVt-1" source="fkpS90Z_O1uiq0ntsgVt-92" target="fkpS90Z_O1uiq0ntsgVt-81">
          <mxGeometry x="-0.0911" relative="1" as="geometry">
            <Array as="points">
              <mxPoint x="490" y="-650" />
              <mxPoint x="455" y="-650" />
            </Array>
            <mxPoint as="offset" />
          </mxGeometry>
        </mxCell>
        <mxCell id="fkpS90Z_O1uiq0ntsgVt-92" value="QUẢN LÝ" style="rounded=0;whiteSpace=wrap;html=1;" vertex="1" parent="fkpS90Z_O1uiq0ntsgVt-1">
          <mxGeometry x="430" y="-800" width="120" height="70" as="geometry" />
        </mxCell>
        <mxCell id="fkpS90Z_O1uiq0ntsgVt-93" style="edgeStyle=orthogonalEdgeStyle;rounded=0;orthogonalLoop=1;jettySize=auto;html=1;exitX=0.5;exitY=0;exitDx=0;exitDy=0;entryX=0;entryY=0.5;entryDx=0;entryDy=0;" edge="1" parent="fkpS90Z_O1uiq0ntsgVt-1" source="fkpS90Z_O1uiq0ntsgVt-95" target="fkpS90Z_O1uiq0ntsgVt-78">
          <mxGeometry relative="1" as="geometry">
            <Array as="points">
              <mxPoint x="155" y="-535" />
              <mxPoint x="155" y="-840" />
            </Array>
          </mxGeometry>
        </mxCell>
        <mxCell id="fkpS90Z_O1uiq0ntsgVt-94" value="CMT,&lt;br&gt;thẻ sinh viên" style="edgeLabel;html=1;align=center;verticalAlign=middle;resizable=0;points=[];" vertex="1" connectable="0" parent="fkpS90Z_O1uiq0ntsgVt-93">
          <mxGeometry x="-0.2929" relative="1" as="geometry">
            <mxPoint as="offset" />
          </mxGeometry>
        </mxCell>
        <mxCell id="fkpS90Z_O1uiq0ntsgVt-122" style="edgeStyle=orthogonalEdgeStyle;rounded=0;orthogonalLoop=1;jettySize=auto;html=1;exitX=0.25;exitY=1;exitDx=0;exitDy=0;entryX=0.5;entryY=1;entryDx=0;entryDy=0;" edge="1" parent="fkpS90Z_O1uiq0ntsgVt-1" source="fkpS90Z_O1uiq0ntsgVt-95" target="fkpS90Z_O1uiq0ntsgVt-81">
          <mxGeometry relative="1" as="geometry">
            <Array as="points">
              <mxPoint x="130" y="-435" />
              <mxPoint x="455" y="-435" />
            </Array>
          </mxGeometry>
        </mxCell>
        <mxCell id="fkpS90Z_O1uiq0ntsgVt-123" value="&lt;span style=&quot;font-size: 12px ; background-color: rgb(248 , 249 , 250)&quot;&gt;Yêu cầu chỉnh sửa, gia hạn, huỷ&lt;/span&gt;" style="edgeLabel;html=1;align=center;verticalAlign=middle;resizable=0;points=[];" vertex="1" connectable="0" parent="fkpS90Z_O1uiq0ntsgVt-122">
          <mxGeometry x="0.2015" y="-1" relative="1" as="geometry">
            <mxPoint as="offset" />
          </mxGeometry>
        </mxCell>
        <mxCell id="fkpS90Z_O1uiq0ntsgVt-148" value="phiếu sửa đổi" style="edgeStyle=orthogonalEdgeStyle;rounded=0;orthogonalLoop=1;jettySize=auto;html=1;exitX=1;exitY=0.25;exitDx=0;exitDy=0;entryX=0;entryY=0;entryDx=0;entryDy=0;" edge="1" parent="fkpS90Z_O1uiq0ntsgVt-1" source="fkpS90Z_O1uiq0ntsgVt-95" target="fkpS90Z_O1uiq0ntsgVt-81">
          <mxGeometry relative="1" as="geometry" />
        </mxCell>
        <mxCell id="fkpS90Z_O1uiq0ntsgVt-95" value="ĐỘC GIẢ" style="rounded=0;whiteSpace=wrap;html=1;" vertex="1" parent="fkpS90Z_O1uiq0ntsgVt-1">
          <mxGeometry x="100" y="-535" width="120" height="70" as="geometry" />
        </mxCell>
        <mxCell id="fkpS90Z_O1uiq0ntsgVt-96" value="" style="endArrow=classic;html=1;rounded=0;entryX=0.102;entryY=-0.016;entryDx=0;entryDy=0;exitX=0.118;exitY=0.188;exitDx=0;exitDy=0;entryPerimeter=0;exitPerimeter=0;" edge="1" parent="fkpS90Z_O1uiq0ntsgVt-1" source="fkpS90Z_O1uiq0ntsgVt-78" target="fkpS90Z_O1uiq0ntsgVt-95">
          <mxGeometry width="50" height="50" relative="1" as="geometry">
            <mxPoint x="356" y="-550" as="sourcePoint" />
            <mxPoint x="400" y="-480" as="targetPoint" />
            <Array as="points">
              <mxPoint x="112" y="-865" />
            </Array>
          </mxGeometry>
        </mxCell>
        <mxCell id="fkpS90Z_O1uiq0ntsgVt-97" value="thẻ độc giả" style="edgeLabel;html=1;align=center;verticalAlign=middle;resizable=0;points=[];" vertex="1" connectable="0" parent="fkpS90Z_O1uiq0ntsgVt-96">
          <mxGeometry x="0.262" y="-1" relative="1" as="geometry">
            <mxPoint y="-79" as="offset" />
          </mxGeometry>
        </mxCell>
        <mxCell id="fkpS90Z_O1uiq0ntsgVt-98" style="edgeStyle=orthogonalEdgeStyle;rounded=0;orthogonalLoop=1;jettySize=auto;html=1;exitX=0.5;exitY=0;exitDx=0;exitDy=0;entryX=0;entryY=0.5;entryDx=0;entryDy=0;" edge="1" parent="fkpS90Z_O1uiq0ntsgVt-1" source="fkpS90Z_O1uiq0ntsgVt-102" target="fkpS90Z_O1uiq0ntsgVt-115">
          <mxGeometry relative="1" as="geometry" />
        </mxCell>
        <mxCell id="fkpS90Z_O1uiq0ntsgVt-99" value="thẻ độc giả" style="edgeLabel;html=1;align=center;verticalAlign=middle;resizable=0;points=[];" vertex="1" connectable="0" parent="fkpS90Z_O1uiq0ntsgVt-98">
          <mxGeometry x="-0.209" y="3" relative="1" as="geometry">
            <mxPoint x="3" y="17" as="offset" />
          </mxGeometry>
        </mxCell>
        <mxCell id="fkpS90Z_O1uiq0ntsgVt-100" style="edgeStyle=orthogonalEdgeStyle;rounded=0;orthogonalLoop=1;jettySize=auto;html=1;exitX=0.5;exitY=1;exitDx=0;exitDy=0;entryX=0;entryY=0.5;entryDx=0;entryDy=0;" edge="1" parent="fkpS90Z_O1uiq0ntsgVt-1" source="fkpS90Z_O1uiq0ntsgVt-102" target="fkpS90Z_O1uiq0ntsgVt-112">
          <mxGeometry relative="1" as="geometry" />
        </mxCell>
        <mxCell id="fkpS90Z_O1uiq0ntsgVt-101" value="thẻ độc giả" style="edgeLabel;html=1;align=center;verticalAlign=middle;resizable=0;points=[];" vertex="1" connectable="0" parent="fkpS90Z_O1uiq0ntsgVt-100">
          <mxGeometry x="0.2119" y="-2" relative="1" as="geometry">
            <mxPoint x="2" y="-37" as="offset" />
          </mxGeometry>
        </mxCell>
        <mxCell id="fkpS90Z_O1uiq0ntsgVt-139" value="thẻ độc giả" style="edgeStyle=orthogonalEdgeStyle;rounded=0;orthogonalLoop=1;jettySize=auto;html=1;exitX=1;exitY=0.5;exitDx=0;exitDy=0;" edge="1" parent="fkpS90Z_O1uiq0ntsgVt-1" source="fkpS90Z_O1uiq0ntsgVt-102" target="fkpS90Z_O1uiq0ntsgVt-131">
          <mxGeometry relative="1" as="geometry" />
        </mxCell>
        <mxCell id="fkpS90Z_O1uiq0ntsgVt-102" value="ĐỘC GIẢ" style="rounded=0;whiteSpace=wrap;html=1;" vertex="1" parent="fkpS90Z_O1uiq0ntsgVt-1">
          <mxGeometry x="90" y="330" width="120" height="70" as="geometry" />
        </mxCell>
        <mxCell id="fkpS90Z_O1uiq0ntsgVt-103" style="edgeStyle=orthogonalEdgeStyle;rounded=0;orthogonalLoop=1;jettySize=auto;html=1;entryX=0;entryY=0.5;entryDx=0;entryDy=0;exitX=0.5;exitY=0;exitDx=0;exitDy=0;" edge="1" parent="fkpS90Z_O1uiq0ntsgVt-1" source="fkpS90Z_O1uiq0ntsgVt-109" target="fkpS90Z_O1uiq0ntsgVt-132">
          <mxGeometry relative="1" as="geometry">
            <mxPoint x="580" y="406" as="sourcePoint" />
            <mxPoint x="610" y="140" as="targetPoint" />
            <Array as="points">
              <mxPoint x="570" y="370" />
            </Array>
          </mxGeometry>
        </mxCell>
        <mxCell id="fkpS90Z_O1uiq0ntsgVt-104" value="yêu cầu huỷ" style="edgeLabel;html=1;align=center;verticalAlign=middle;resizable=0;points=[];" vertex="1" connectable="0" parent="fkpS90Z_O1uiq0ntsgVt-103">
          <mxGeometry x="-0.0308" y="3" relative="1" as="geometry">
            <mxPoint x="33" y="-13" as="offset" />
          </mxGeometry>
        </mxCell>
        <mxCell id="fkpS90Z_O1uiq0ntsgVt-107" style="edgeStyle=orthogonalEdgeStyle;rounded=0;orthogonalLoop=1;jettySize=auto;html=1;exitX=0.75;exitY=1;exitDx=0;exitDy=0;entryX=1;entryY=0.5;entryDx=0;entryDy=0;" edge="1" parent="fkpS90Z_O1uiq0ntsgVt-1" source="fkpS90Z_O1uiq0ntsgVt-109" target="fkpS90Z_O1uiq0ntsgVt-132">
          <mxGeometry relative="1" as="geometry">
            <mxPoint x="800" y="280" as="targetPoint" />
          </mxGeometry>
        </mxCell>
        <mxCell id="fkpS90Z_O1uiq0ntsgVt-108" value="yêu cầu gia hạn" style="edgeLabel;html=1;align=center;verticalAlign=middle;resizable=0;points=[];" vertex="1" connectable="0" parent="fkpS90Z_O1uiq0ntsgVt-107">
          <mxGeometry x="0.4896" y="-2" relative="1" as="geometry">
            <mxPoint as="offset" />
          </mxGeometry>
        </mxCell>
        <mxCell id="fkpS90Z_O1uiq0ntsgVt-142" value="yêu cầu thay đổi&lt;br&gt;thông tin" style="edgeStyle=orthogonalEdgeStyle;rounded=0;orthogonalLoop=1;jettySize=auto;html=1;exitX=1;exitY=0.25;exitDx=0;exitDy=0;entryX=0.5;entryY=1;entryDx=0;entryDy=0;" edge="1" parent="fkpS90Z_O1uiq0ntsgVt-1" source="fkpS90Z_O1uiq0ntsgVt-109" target="fkpS90Z_O1uiq0ntsgVt-132">
          <mxGeometry relative="1" as="geometry" />
        </mxCell>
        <mxCell id="fkpS90Z_O1uiq0ntsgVt-109" value="QUẢN LÝ" style="rounded=0;whiteSpace=wrap;html=1;" vertex="1" parent="fkpS90Z_O1uiq0ntsgVt-1">
          <mxGeometry x="510" y="470" width="120" height="70" as="geometry" />
        </mxCell>
        <mxCell id="fkpS90Z_O1uiq0ntsgVt-110" style="edgeStyle=orthogonalEdgeStyle;rounded=0;orthogonalLoop=1;jettySize=auto;html=1;exitX=1;exitY=0.5;exitDx=0;exitDy=0;entryX=0.25;entryY=1;entryDx=0;entryDy=0;" edge="1" parent="fkpS90Z_O1uiq0ntsgVt-1" source="fkpS90Z_O1uiq0ntsgVt-112" target="fkpS90Z_O1uiq0ntsgVt-109">
          <mxGeometry relative="1" as="geometry" />
        </mxCell>
        <mxCell id="fkpS90Z_O1uiq0ntsgVt-111" value="thẻ độc giả" style="edgeLabel;html=1;align=center;verticalAlign=middle;resizable=0;points=[];" vertex="1" connectable="0" parent="fkpS90Z_O1uiq0ntsgVt-110">
          <mxGeometry x="-0.44" y="-1" relative="1" as="geometry">
            <mxPoint x="25" y="-1" as="offset" />
          </mxGeometry>
        </mxCell>
        <mxCell id="fkpS90Z_O1uiq0ntsgVt-112" value="2.3. gia hạn" style="ellipse;whiteSpace=wrap;html=1;" vertex="1" parent="fkpS90Z_O1uiq0ntsgVt-1">
          <mxGeometry x="245" y="520" width="120" height="80" as="geometry" />
        </mxCell>
        <mxCell id="fkpS90Z_O1uiq0ntsgVt-113" style="edgeStyle=orthogonalEdgeStyle;rounded=0;orthogonalLoop=1;jettySize=auto;html=1;exitX=1;exitY=0.5;exitDx=0;exitDy=0;entryX=0.25;entryY=0;entryDx=0;entryDy=0;" edge="1" parent="fkpS90Z_O1uiq0ntsgVt-1" source="fkpS90Z_O1uiq0ntsgVt-115" target="fkpS90Z_O1uiq0ntsgVt-109">
          <mxGeometry relative="1" as="geometry">
            <Array as="points">
              <mxPoint x="540" y="230" />
            </Array>
          </mxGeometry>
        </mxCell>
        <mxCell id="fkpS90Z_O1uiq0ntsgVt-114" value="thẻ độc giả" style="edgeLabel;html=1;align=center;verticalAlign=middle;resizable=0;points=[];" vertex="1" connectable="0" parent="fkpS90Z_O1uiq0ntsgVt-113">
          <mxGeometry x="-0.6258" y="-2" relative="1" as="geometry">
            <mxPoint as="offset" />
          </mxGeometry>
        </mxCell>
        <mxCell id="fkpS90Z_O1uiq0ntsgVt-115" value="2.2. cập nhật thông tin" style="ellipse;whiteSpace=wrap;html=1;" vertex="1" parent="fkpS90Z_O1uiq0ntsgVt-1">
          <mxGeometry x="250" y="190" width="120" height="80" as="geometry" />
        </mxCell>
        <mxCell id="fkpS90Z_O1uiq0ntsgVt-134" value="thông tin độc giả" style="edgeStyle=orthogonalEdgeStyle;rounded=0;orthogonalLoop=1;jettySize=auto;html=1;exitX=0;exitY=0.5;exitDx=0;exitDy=0;entryX=0;entryY=0;entryDx=0;entryDy=0;" edge="1" parent="fkpS90Z_O1uiq0ntsgVt-1" source="fkpS90Z_O1uiq0ntsgVt-118" target="fkpS90Z_O1uiq0ntsgVt-132">
          <mxGeometry relative="1" as="geometry" />
        </mxCell>
        <mxCell id="fkpS90Z_O1uiq0ntsgVt-118" value="Danh sách thành viên độc giả" style="shape=partialRectangle;whiteSpace=wrap;html=1;left=0;right=0;fillColor=none;" vertex="1" parent="fkpS90Z_O1uiq0ntsgVt-1">
          <mxGeometry x="640" y="210" width="120" height="60" as="geometry" />
        </mxCell>
        <mxCell id="fkpS90Z_O1uiq0ntsgVt-130" value="ĐỘC GIẢ" style="rounded=0;whiteSpace=wrap;html=1;" vertex="1" parent="fkpS90Z_O1uiq0ntsgVt-1">
          <mxGeometry x="50" y="-150" width="120" height="70" as="geometry" />
        </mxCell>
        <mxCell id="fkpS90Z_O1uiq0ntsgVt-141" value="thẻ độc giả" style="edgeStyle=orthogonalEdgeStyle;rounded=0;orthogonalLoop=1;jettySize=auto;html=1;exitX=1;exitY=0.5;exitDx=0;exitDy=0;entryX=0;entryY=0.25;entryDx=0;entryDy=0;" edge="1" parent="fkpS90Z_O1uiq0ntsgVt-1" source="fkpS90Z_O1uiq0ntsgVt-131" target="fkpS90Z_O1uiq0ntsgVt-109">
          <mxGeometry relative="1" as="geometry" />
        </mxCell>
        <mxCell id="fkpS90Z_O1uiq0ntsgVt-143" value="huỷ khi vi phạm quy định" style="edgeStyle=orthogonalEdgeStyle;rounded=0;orthogonalLoop=1;jettySize=auto;html=1;exitX=0.5;exitY=1;exitDx=0;exitDy=0;entryX=0;entryY=0.75;entryDx=0;entryDy=0;" edge="1" parent="fkpS90Z_O1uiq0ntsgVt-1" source="fkpS90Z_O1uiq0ntsgVt-131" target="fkpS90Z_O1uiq0ntsgVt-109">
          <mxGeometry x="0.3843" y="2" relative="1" as="geometry">
            <Array as="points">
              <mxPoint x="365" y="522" />
            </Array>
            <mxPoint as="offset" />
          </mxGeometry>
        </mxCell>
        <mxCell id="fkpS90Z_O1uiq0ntsgVt-131" value="2.4. huỷ" style="ellipse;whiteSpace=wrap;html=1;" vertex="1" parent="fkpS90Z_O1uiq0ntsgVt-1">
          <mxGeometry x="305" y="325" width="120" height="80" as="geometry" />
        </mxCell>
        <mxCell id="fkpS90Z_O1uiq0ntsgVt-135" style="edgeStyle=orthogonalEdgeStyle;rounded=0;orthogonalLoop=1;jettySize=auto;html=1;exitX=1;exitY=0;exitDx=0;exitDy=0;entryX=1;entryY=0.5;entryDx=0;entryDy=0;" edge="1" parent="fkpS90Z_O1uiq0ntsgVt-1" source="fkpS90Z_O1uiq0ntsgVt-132" target="fkpS90Z_O1uiq0ntsgVt-118">
          <mxGeometry relative="1" as="geometry" />
        </mxCell>
        <mxCell id="fkpS90Z_O1uiq0ntsgVt-138" value="truy vấn độc giả" style="edgeLabel;html=1;align=center;verticalAlign=middle;resizable=0;points=[];" vertex="1" connectable="0" parent="fkpS90Z_O1uiq0ntsgVt-135">
          <mxGeometry x="0.1163" y="-1" relative="1" as="geometry">
            <mxPoint x="-21" y="14" as="offset" />
          </mxGeometry>
        </mxCell>
        <mxCell id="fkpS90Z_O1uiq0ntsgVt-132" value="2.2. truy vấn" style="ellipse;whiteSpace=wrap;html=1;" vertex="1" parent="fkpS90Z_O1uiq0ntsgVt-1">
          <mxGeometry x="650" y="330" width="120" height="80" as="geometry" />
        </mxCell>
        <mxCell id="fkpS90Z_O1uiq0ntsgVt-149" value="nhận phiếu sửa đổi,&lt;br&gt;gia hạn, huỷ" style="endArrow=classic;html=1;rounded=0;entryX=0.25;entryY=1;entryDx=0;entryDy=0;exitX=0.208;exitY=0.063;exitDx=0;exitDy=0;exitPerimeter=0;" edge="1" parent="fkpS90Z_O1uiq0ntsgVt-1" source="fkpS90Z_O1uiq0ntsgVt-81" target="fkpS90Z_O1uiq0ntsgVt-92">
          <mxGeometry x="0.2175" width="50" height="50" relative="1" as="geometry">
            <mxPoint x="410" y="-560" as="sourcePoint" />
            <mxPoint x="390" y="-650" as="targetPoint" />
            <Array as="points">
              <mxPoint x="420" y="-600" />
              <mxPoint x="360" y="-600" />
              <mxPoint x="360" y="-680" />
              <mxPoint x="420" y="-680" />
              <mxPoint x="460" y="-680" />
            </Array>
            <mxPoint as="offset" />
          </mxGeometry>
        </mxCell>
      </root>
    </mxGraphModel>
  </diagram>
</mxfile>
